<svg version="1.1" id="Layer_1" xmlns="http://www.w3.org/2000/svg" xmlns:xlink="http://www.w3.org/1999/xlink" x="0px" y="0px"
	 width="100%" viewBox="0 0 224 224" enable-background="new 0 0 224 224" xml:space="preserve">
<path fill="#27292E" opacity="1.000000" stroke="none" 
	d="
M225.000000,26.000000 
	C225.000000,83.687561 225.000000,141.375122 224.672638,199.635345 
	C223.402008,201.738007 222.637039,203.420212 221.483810,204.770889 
	C217.134674,209.864548 212.862778,215.053345 208.141754,219.787445 
	C205.919785,222.015564 202.743713,223.292191 200.000000,225.000000 
	C142.312439,225.000000 84.624878,225.000000 26.364597,224.673523 
	C24.412064,223.497986 23.057619,222.604004 21.648006,221.807709 
	C15.714388,218.455826 10.205218,214.671539 6.765234,208.498962 
	C4.963395,205.265823 2.929237,202.162155 0.999998,199.000000 
	C1.000000,141.979111 1.000000,84.958206 1.326768,27.363377 
	C2.148721,26.149015 2.823956,25.580326 3.111989,24.857370 
	C7.200446,14.595429 14.323757,7.394044 24.562399,3.213037 
	C25.516985,2.823225 26.194069,1.753848 27.000000,1.000000 
	C84.020897,1.000000 141.041794,1.000000 198.636581,1.326785 
	C200.286301,2.361221 201.280807,3.268662 202.450836,3.744840 
	C211.587448,7.463207 217.776428,14.203064 222.324326,22.725061 
	C222.975449,23.945196 224.096451,24.914572 225.000000,26.000000 
M82.497520,165.136414 
	C81.818665,165.384262 81.139809,165.632095 80.460960,165.879944 
	C80.960022,166.473419 81.459076,167.066879 82.422386,168.089188 
	C83.005386,168.315720 83.588379,168.542267 84.744133,169.231796 
	C93.135094,171.458954 101.526047,173.686111 110.155502,176.454483 
	C112.321747,176.238388 114.487984,176.022293 116.654228,175.806198 
	C116.364548,174.311493 116.561310,172.375488 115.686714,171.411423 
	C113.696838,169.217957 111.600449,170.081482 109.082779,172.358780 
	C101.261307,170.483704 93.439835,168.608627 85.209587,166.298859 
	C84.650879,166.101654 84.092171,165.904449 82.497520,165.136414 
M58.897392,148.053528 
	C59.149906,148.296280 59.402424,148.539032 59.790909,149.257324 
	C60.138027,149.592194 60.485146,149.927063 61.075748,150.869202 
	C62.280655,152.150894 63.485561,153.432571 64.944740,155.227554 
	C65.520348,155.717117 66.095955,156.206680 66.950798,157.207886 
	C68.000610,158.049179 69.050423,158.890472 70.510933,160.288986 
	C74.135719,163.098389 77.503990,166.419861 82.175522,167.139694 
	C82.478050,166.650497 82.780579,166.161285 83.083107,165.672073 
	C79.331520,163.090866 75.579926,160.509659 71.477142,157.375137 
	C70.124733,156.190414 68.772331,155.005707 67.199852,153.321793 
	C66.527489,152.704132 65.855125,152.086456 64.963486,150.965240 
	C64.213509,150.169678 63.463531,149.374115 62.421486,147.917755 
	C61.792934,147.193924 61.164383,146.470078 60.532063,145.723022 
	C60.532063,145.723022 60.511002,145.703979 60.319389,145.124451 
	C59.923897,144.672394 59.528408,144.220322 58.953289,143.129227 
	C57.923557,141.158173 56.893826,139.187134 56.223335,136.810181 
	C56.472855,136.549164 56.722378,136.288132 57.596619,136.199265 
	C61.976074,137.240860 62.628307,133.687088 64.232971,131.662064 
	C65.085091,133.085785 65.914955,134.523392 66.792625,135.931183 
	C82.538521,161.187302 114.506630,170.300720 141.158051,154.921234 
	C142.965195,153.878418 144.493042,152.351562 146.150772,151.049820 
	C145.842621,150.585510 145.534454,150.121185 145.226288,149.656860 
	C142.479980,150.890106 139.733658,152.123352 136.262451,152.776932 
	C140.175659,148.935791 144.088867,145.094650 148.085999,142.051605 
	C148.389847,143.343155 148.693680,144.634705 148.235504,146.192795 
	C146.386765,147.802612 144.538025,149.412415 142.689301,151.022232 
	C143.089722,151.547318 143.490143,152.072388 143.890564,152.597473 
	C145.702881,151.457443 147.515198,150.317413 150.078964,149.139908 
	C152.862350,148.846344 155.747635,148.240692 155.566162,144.746857 
	C155.365402,140.882156 152.237869,140.811752 149.277084,140.950455 
	C148.946335,140.965927 148.614838,140.965012 148.723770,140.392899 
	C151.729187,135.926544 155.146759,131.674393 157.613617,126.928131 
	C159.701599,122.910843 160.689255,118.321663 162.806427,113.715981 
	C162.907211,111.441650 163.007996,109.167328 163.731430,106.875359 
	C164.136520,106.965263 164.541611,107.055168 165.458969,107.517616 
	C166.485855,106.507919 167.776352,105.655022 168.488327,104.458015 
	C170.342514,101.340652 171.942978,98.072365 174.306366,94.924309 
	C174.747681,94.954483 175.188980,94.984657 175.791870,95.716537 
	C175.209976,97.486214 174.628067,99.255882 173.640579,101.578102 
	C171.810776,106.013046 169.980972,110.447990 167.927917,115.518394 
	C167.549026,117.337914 167.265823,119.184532 166.760574,120.968262 
	C166.365067,122.364639 165.694412,123.683067 165.145996,125.036125 
	C166.728012,125.291206 168.310013,125.546288 169.917572,125.805489 
	C169.917572,121.710579 169.917572,118.314949 170.212402,114.259377 
	C170.694763,110.907845 172.861542,109.779877 176.740417,109.956680 
	C183.712631,108.529724 188.588058,104.410706 193.207748,97.676834 
	C186.642197,101.656853 181.329788,104.877228 175.337189,108.059921 
	C174.891342,107.988449 174.445496,107.916977 173.868011,107.049370 
	C173.818542,106.784981 173.769073,106.520592 173.839417,105.667297 
	C174.295609,104.556450 174.751816,103.445610 175.707169,101.855705 
	C176.851730,100.493446 178.097458,99.201561 179.109512,97.747086 
	C179.948120,96.541824 180.511246,95.144875 181.196426,93.832848 
	C179.798264,93.280525 178.400116,92.728203 176.898880,91.264565 
	C176.862381,90.961044 176.825882,90.657532 177.044800,89.766014 
	C179.819504,87.508934 182.594223,85.251854 185.742645,82.697144 
	C185.604492,81.799110 185.466339,80.901070 184.889984,79.543770 
	C183.460815,79.742455 181.313950,79.415810 180.720688,80.226334 
	C177.254852,84.961372 174.092468,89.924477 170.949478,94.887749 
	C168.863724,98.181488 166.981522,101.604126 164.599899,104.369080 
	C159.437439,96.788506 160.793823,87.469559 168.041580,81.980835 
	C170.525696,80.099609 173.339340,78.653557 176.677734,76.802643 
	C181.062012,74.106079 185.446304,71.409523 190.300491,68.423950 
	C191.575912,71.300186 192.883652,74.249336 194.298767,78.089546 
	C193.960922,83.980972 193.623077,89.872398 193.274780,95.946312 
	C197.071869,90.096642 197.917572,83.804314 195.921860,76.263809 
	C193.919418,71.934624 191.916977,67.605438 190.434158,64.399643 
	C185.020691,68.337685 180.496323,71.628952 175.273102,75.081825 
	C158.910202,82.813652 154.972137,93.155067 162.351807,107.112152 
	C160.411789,108.006973 158.311813,108.693283 156.658279,109.961594 
	C156.300812,110.235764 157.549622,112.604080 157.921463,114.795258 
	C154.802582,129.363068 148.733017,141.591385 133.176956,146.514542 
	C132.230240,146.814163 130.977478,148.597580 131.155396,149.407623 
	C131.402969,150.534790 132.746902,151.576874 133.850647,152.310898 
	C134.730652,152.896133 135.953323,152.966110 136.623230,153.821548 
	C124.194542,160.194046 111.274780,160.551773 98.290848,156.323914 
	C100.235825,154.486328 103.529457,153.173203 101.607887,149.605530 
	C100.273903,147.128815 98.122757,146.753296 95.061592,148.284668 
	C86.164780,144.467194 79.353447,138.225906 74.750420,129.816666 
	C71.933235,124.669968 68.510895,119.491638 70.445206,112.948212 
	C70.697807,112.093689 69.655998,110.273209 68.754677,109.826614 
	C67.871445,109.388985 65.989395,109.745155 65.305954,110.469856 
	C64.622124,111.194977 64.530869,112.893822 64.807869,114.010002 
	C65.193939,115.565712 66.441833,116.905212 66.840836,118.460403 
	C70.726143,133.603973 79.682114,144.535614 94.008293,151.903397 
	C94.666817,153.303162 95.325333,154.702927 95.250740,156.014664 
	C92.767975,154.769852 90.210312,153.653778 87.814339,152.259766 
	C69.384285,141.536987 59.525517,121.171165 62.564915,100.239914 
	C65.575546,79.506783 80.755798,62.706711 101.160858,57.832729 
	C103.766258,57.210403 106.644142,57.818680 109.370293,57.573399 
	C110.698708,57.453876 112.221275,56.956921 113.163994,56.093609 
	C113.680260,55.620819 113.584167,53.460846 113.037392,53.064598 
	C112.001816,52.314106 110.333824,51.789200 109.122040,52.054447 
	C105.929932,52.753151 102.878906,54.071251 99.705750,54.885788 
	C78.773888,60.258965 62.855408,77.992783 59.534828,99.324142 
	C57.895714,109.853760 60.072884,119.826164 62.194618,129.398697 
	C60.178860,126.896393 58.163101,124.394096 56.216553,121.185036 
	C56.048798,118.877792 55.952457,116.562775 55.702435,114.264481 
	C52.585178,85.609428 69.852226,59.544952 97.653816,51.836185 
	C107.695633,49.051815 118.084160,46.905903 128.110489,52.683094 
	C128.851593,53.110134 130.701355,52.779774 131.219070,52.140339 
	C131.906937,51.290760 132.204620,49.665951 131.885178,48.612083 
	C131.649139,47.833344 130.201874,47.063694 129.218491,46.951004 
	C127.628853,46.768833 125.923195,47.462234 124.359802,47.209332 
	C111.481674,45.126110 99.160858,46.967545 86.839188,51.743927 
	C86.553871,51.465721 86.268547,51.187511 86.285301,50.415905 
	C86.165283,48.676918 86.045273,46.937935 85.548271,44.647537 
	C85.023018,43.928513 84.497765,43.209484 84.542908,42.119411 
	C110.174828,31.719280 134.370865,34.283783 156.916443,50.406178 
	C159.345398,52.143127 160.877884,55.090336 163.043854,57.258751 
	C163.970306,58.186249 165.429352,58.941761 166.696411,59.026360 
	C167.393188,59.072887 168.877747,57.485760 168.796555,56.773090 
	C168.654282,55.524143 167.838257,54.059834 166.842773,53.261452 
	C164.815048,51.635220 162.342270,50.567921 160.294205,48.962448 
	C147.265610,38.749386 132.430328,33.421074 115.970520,32.976109 
	C92.616158,32.344765 73.209679,41.280125 56.288578,57.991684 
	C55.320923,57.809288 54.353268,57.626888 53.747177,56.881153 
	C66.142807,42.364410 81.915314,33.765301 100.574509,30.335508 
	C102.981384,29.893093 105.522560,30.236452 107.980919,30.000835 
	C109.829903,29.823626 111.645889,29.302011 113.476570,28.933710 
	C112.456245,27.314217 111.435928,25.694723 110.916542,23.488955 
	C110.952011,21.996346 111.588020,19.898148 110.859627,19.175823 
	C110.079666,18.402376 108.001854,18.789354 106.515259,18.930595 
	C105.572342,19.020184 104.700218,19.789173 103.752953,19.908207 
	C76.407074,23.344498 55.276867,36.912415 38.622314,59.083187 
	C38.332256,59.035309 38.042194,58.987427 37.695953,58.267445 
	C36.544895,57.107658 35.393841,55.947876 34.242783,54.788090 
	C33.247902,56.084274 32.073845,57.283226 31.304129,58.701595 
	C30.370981,60.421127 29.917385,62.397194 29.018549,64.139618 
	C20.636797,80.387939 16.731701,97.650696 18.896488,115.801216 
	C20.030018,125.305206 22.974401,134.593216 24.646948,144.296997 
	C25.015127,145.807175 25.267843,147.365829 25.861879,148.781219 
	C25.964314,149.025269 27.621122,148.885666 28.377817,148.532791 
	C30.181324,147.691681 31.875965,146.617126 33.999935,146.192993 
	C39.811512,154.261261 45.658775,162.304367 51.390526,170.428940 
	C52.125851,171.471237 52.260731,172.937103 51.913364,173.734924 
	C50.329147,174.406998 48.744930,175.079071 47.160713,175.751144 
	C48.128712,177.063339 48.898876,178.612854 50.115364,179.626953 
	C51.597340,180.862396 53.583511,181.478073 55.130020,182.653366 
	C71.966621,195.448761 90.899948,202.490860 112.065193,202.744736 
	C141.618469,203.099243 166.051239,191.562805 186.634705,169.802292 
	C188.104309,168.177521 189.573929,166.552734 191.043533,164.927963 
	C189.646988,163.798904 188.350357,162.494293 186.810089,161.617752 
	C186.082962,161.203949 184.888794,161.610855 184.179916,160.855728 
	C194.084198,148.305588 199.659409,133.940338 201.697021,118.195808 
	C202.040955,115.538124 203.599731,112.047386 200.202347,110.269867 
	C198.189804,119.025696 196.216354,127.611412 193.940475,135.359909 
	C193.127274,132.515976 192.563171,129.014862 188.415100,130.262573 
	C185.672241,131.087616 184.674026,133.307022 186.708069,136.665634 
	C175.293945,164.132935 154.721985,180.640137 125.562462,185.096878 
	C95.695862,189.661713 70.969467,179.103104 51.742111,155.877045 
	C49.936790,153.696274 49.226540,150.639954 47.744282,148.146835 
	C47.067787,147.009003 45.553017,145.356750 44.767696,145.529129 
	C43.527901,145.801208 42.438816,147.309280 41.568794,148.500763 
	C41.085171,149.163086 41.174545,150.243820 40.302654,150.991959 
	C34.023811,141.358902 30.623632,130.665756 29.082821,119.386406 
	C28.570490,115.635948 28.971973,111.760651 29.618456,108.232216 
	C31.901899,109.796402 34.532143,111.221909 36.388485,108.265450 
	C37.093685,107.142319 35.837555,104.787682 35.311859,102.187065 
	C35.990612,88.455231 40.402721,75.952988 47.959438,64.556992 
	C48.788761,63.306328 50.605232,62.710247 51.992981,62.601460 
	C52.000664,63.388927 52.008350,64.176399 52.319206,65.557907 
	C53.926331,66.779266 55.533459,68.000626 56.919460,69.859604 
	C55.442329,72.459694 53.810226,74.984924 52.512352,77.671608 
	C41.165382,101.160561 42.832531,123.770630 57.460468,146.091461 
	C57.883366,146.576752 58.306263,147.062057 58.897392,148.053528 
M155.818405,34.052414 
	C165.346146,39.457985 174.731552,44.987225 179.569946,55.618343 
	C179.975006,56.508389 181.678329,57.253727 182.768951,57.241119 
	C183.605957,57.231441 184.986465,56.007824 185.116348,55.168041 
	C185.281723,54.098816 184.777206,52.450802 183.962341,51.778347 
	C175.423416,44.731930 166.764557,37.830853 158.081894,30.284880 
	C156.400558,29.125526 154.785110,27.828962 152.966446,26.955589 
	C152.695435,26.825447 150.650208,29.310612 150.814301,29.525484 
	C152.054291,31.149208 153.641220,32.507984 155.818405,34.052414 
M102.890305,106.331642 
	C96.413864,109.254356 91.052490,113.254677 89.694328,120.785240 
	C88.527122,127.256920 91.872101,131.373230 98.425056,130.988937 
	C108.499519,130.398117 117.457939,125.765274 120.391052,116.382065 
	C122.932457,108.251945 127.351952,108.477287 133.340271,108.806610 
	C135.495911,108.925156 137.750473,109.160217 139.801620,108.674133 
	C141.527924,108.265045 143.024719,106.887543 144.623108,105.938728 
	C144.403748,105.373306 144.184372,104.807892 143.964996,104.242477 
	C138.209534,104.242477 132.437866,103.977013 126.703819,104.327477 
	C122.214256,104.601883 119.515984,103.031029 118.283470,98.918297 
	C123.129105,93.985275 132.834244,94.134750 133.000046,83.858475 
	C124.434868,83.858475 116.471466,84.112228 108.534119,83.766937 
	C103.462090,83.546310 101.468704,85.999435 100.337509,91.254807 
	C106.378036,91.254807 111.959679,91.254807 117.541321,91.254807 
	C117.561111,91.603500 117.580902,91.952194 117.600693,92.300880 
	C113.633995,94.515755 109.667290,96.730629 105.659546,98.968422 
	C107.035606,100.926743 108.032318,102.345200 109.286896,104.130638 
	C107.020050,104.900108 105.322807,105.476227 102.890305,106.331642 
z"/>
<path fill="#000000" opacity="1.000000" stroke="none" 
	d="
M26.531334,1.000000 
	C26.194069,1.753848 25.516985,2.823225 24.562399,3.213037 
	C14.323757,7.394044 7.200446,14.595429 3.111989,24.857370 
	C2.823956,25.580326 2.148721,26.149015 1.326768,26.894720 
	C1.000000,18.406929 1.000000,9.813859 1.000000,1.000000 
	C9.352930,1.000000 17.707798,1.000000 26.531334,1.000000 
z"/>
<path fill="#000000" opacity="1.000000" stroke="none" 
	d="
M225.000000,25.531319 
	C224.096451,24.914572 222.975449,23.945196 222.324326,22.725061 
	C217.776428,14.203064 211.587448,7.463207 202.450836,3.744840 
	C201.280807,3.268662 200.286301,2.361221 199.105240,1.326785 
	C207.591614,1.000000 216.183212,1.000000 225.000000,1.000000 
	C225.000000,9.019480 225.000000,17.041061 225.000000,25.531319 
z"/>
<path fill="#000000" opacity="1.000000" stroke="none" 
	d="
M0.999998,199.468658 
	C2.929237,202.162155 4.963395,205.265823 6.765234,208.498962 
	C10.205218,214.671539 15.714388,218.455826 21.648006,221.807709 
	C23.057619,222.604004 24.412064,223.497986 25.895941,224.673523 
	C17.738834,225.000000 9.477667,225.000000 1.000000,225.000000 
	C1.000000,216.647018 1.000000,208.292175 0.999998,199.468658 
z"/>
<path fill="#000000" opacity="1.000000" stroke="none" 
	d="
M200.468674,225.000000 
	C202.743713,223.292191 205.919785,222.015564 208.141754,219.787445 
	C212.862778,215.053345 217.134674,209.864548 221.483810,204.770889 
	C222.637039,203.420212 223.402008,201.738007 224.672638,200.104004 
	C225.000000,208.259705 225.000000,216.519409 225.000000,225.000000 
	C216.980469,225.000000 208.958908,225.000000 200.468674,225.000000 
z"/>
<path fill="#F10203" opacity="1.000000" stroke="none" 
	d="
M103.257935,106.192001 
	C105.322807,105.476227 107.020050,104.900108 109.286896,104.130638 
	C108.032318,102.345200 107.035606,100.926743 105.659546,98.968422 
	C109.667290,96.730629 113.633995,94.515755 117.600693,92.300880 
	C117.580902,91.952194 117.561111,91.603500 117.541321,91.254807 
	C111.959679,91.254807 106.378036,91.254807 100.337509,91.254807 
	C101.468704,85.999435 103.462090,83.546310 108.534119,83.766937 
	C116.471466,84.112228 124.434868,83.858475 133.000046,83.858475 
	C132.834244,94.134750 123.129105,93.985275 118.283470,98.918297 
	C119.515984,103.031029 122.214256,104.601883 126.703819,104.327477 
	C132.437866,103.977013 138.209534,104.242477 143.964996,104.242477 
	C144.184372,104.807892 144.403748,105.373306 144.623108,105.938728 
	C143.024719,106.887543 141.527924,108.265045 139.801620,108.674133 
	C137.750473,109.160217 135.495911,108.925156 133.340271,108.806610 
	C127.351952,108.477287 122.932457,108.251945 120.391052,116.382065 
	C117.457939,125.765274 108.499519,130.398117 98.425056,130.988937 
	C91.872101,131.373230 88.527122,127.256920 89.694328,120.785240 
	C91.052490,113.254677 96.413864,109.254356 103.257935,106.192001 
M105.988434,111.391273 
	C103.286880,114.870682 100.456261,118.262192 97.981346,121.895966 
	C97.415703,122.726456 97.627762,124.789719 98.306061,125.557327 
	C98.926277,126.259209 100.768166,126.366371 101.887749,126.061073 
	C107.804153,124.447723 112.862587,115.743782 111.511147,108.958878 
	C109.804001,109.668556 108.208305,110.331902 105.988434,111.391273 
z"/>
<path fill="#A3A2A3" opacity="1.000000" stroke="none" 
	d="
M136.987350,153.356598 
	C139.733658,152.123352 142.479980,150.890106 145.226288,149.656860 
	C145.534454,150.121185 145.842621,150.585510 146.150772,151.049820 
	C144.493042,152.351562 142.965195,153.878418 141.158051,154.921234 
	C114.506630,170.300720 82.538521,161.187302 66.792625,135.931183 
	C65.914955,134.523392 65.085091,133.085785 64.159882,131.152466 
	C63.712730,130.355087 63.338676,130.067291 62.964622,129.779495 
	C60.072884,119.826164 57.895714,109.853760 59.534828,99.324142 
	C62.855408,77.992783 78.773888,60.258965 99.705750,54.885788 
	C102.878906,54.071251 105.929932,52.753151 109.122040,52.054447 
	C110.333824,51.789200 112.001816,52.314106 113.037392,53.064598 
	C113.584167,53.460846 113.680260,55.620819 113.163994,56.093609 
	C112.221275,56.956921 110.698708,57.453876 109.370293,57.573399 
	C106.644142,57.818680 103.766258,57.210403 101.160858,57.832729 
	C80.755798,62.706711 65.575546,79.506783 62.564915,100.239914 
	C59.525517,121.171165 69.384285,141.536987 87.814339,152.259766 
	C90.210312,153.653778 92.767975,154.769852 95.625641,156.010483 
	C96.000534,156.006302 95.904160,155.989075 95.983932,156.219757 
	C96.267349,156.737259 96.544884,156.888031 97.177956,156.963898 
	C97.650909,157.007446 97.842239,156.989807 98.033562,156.972168 
	C111.274780,160.551773 124.194542,160.194046 136.799713,153.555527 
	C136.976196,153.289505 136.987350,153.356598 136.987350,153.356598 
z"/>
<path fill="#A4A4A5" opacity="1.000000" stroke="none" 
	d="
M28.955692,107.942429 
	C28.971973,111.760651 28.570490,115.635948 29.082821,119.386406 
	C30.623632,130.665756 34.023811,141.358902 40.656509,151.027588 
	C41.010365,151.063232 40.955677,151.015015 40.819199,151.265991 
	C40.761776,151.690292 40.840839,151.863586 40.993507,152.377045 
	C46.780838,159.422775 52.494560,166.128311 58.190079,173.135315 
	C57.442097,173.963318 56.712311,174.489868 55.705688,174.613205 
	C54.425846,174.141113 53.422832,174.072250 52.465309,174.031219 
	C52.510799,174.059052 52.673767,174.206757 52.673767,174.206757 
	C52.260731,172.937103 52.125851,171.471237 51.390526,170.428940 
	C45.658775,162.304367 39.811512,154.261261 33.728096,145.593597 
	C32.807098,144.369659 31.720306,143.833099 31.574398,143.107361 
	C29.369608,132.141144 26.279451,121.229637 25.405363,110.146889 
	C23.951977,91.719162 30.146587,74.922142 39.492134,59.228981 
	C55.276867,36.912415 76.407074,23.344498 103.752953,19.908207 
	C104.700218,19.789173 105.572342,19.020184 106.515259,18.930595 
	C108.001854,18.789354 110.079666,18.402376 110.859627,19.175823 
	C111.588020,19.898148 110.952011,21.996346 110.388000,23.758904 
	C109.300980,24.004702 108.742493,23.980553 107.780457,23.871525 
	C104.937813,23.661989 102.426537,23.094606 100.070457,23.478861 
	C62.697582,29.574030 34.437180,58.429539 28.946178,96.069397 
	C28.563986,98.689247 28.904470,101.414536 28.999168,104.469818 
	C29.044863,105.880043 29.000278,106.911232 28.955692,107.942429 
z"/>
<path fill="#A1A1A2" opacity="1.000000" stroke="none" 
	d="
M41.008018,151.099609 
	C41.174545,150.243820 41.085171,149.163086 41.568794,148.500763 
	C42.438816,147.309280 43.527901,145.801208 44.767696,145.529129 
	C45.553017,145.356750 47.067787,147.009003 47.744282,148.146835 
	C49.226540,150.639954 49.936790,153.696274 51.742111,155.877045 
	C70.969467,179.103104 95.695862,189.661713 125.562462,185.096878 
	C154.721985,180.640137 175.293945,164.132935 187.194519,136.478790 
	C188.539886,136.675766 189.398804,137.059570 190.012741,137.745453 
	C180.281631,160.182739 164.134125,175.445557 141.512650,184.516846 
	C114.327713,193.329514 89.261940,189.770966 65.736244,173.812836 
	C65.059097,173.353210 64.547699,173.129288 64.054703,172.949371 
	C64.073105,172.993393 64.161194,172.956711 64.008041,172.653107 
	C58.045742,166.200134 52.275574,160.013092 46.395519,153.932297 
	C45.177284,152.672470 43.550896,151.807327 41.776909,150.612900 
	C41.279362,150.648682 41.117519,150.831848 40.955677,151.015015 
	C40.955677,151.015015 41.010365,151.063232 41.008018,151.099609 
z"/>
<path fill="#A2A2A3" opacity="1.000000" stroke="none" 
	d="
M52.293564,173.970840 
	C52.673767,174.206757 52.510799,174.059052 52.686981,174.331757 
	C53.873577,175.793121 54.883999,176.981766 55.914547,178.112640 
	C55.934673,178.054901 55.819160,178.014725 55.666286,178.321594 
	C55.991318,179.067276 56.469223,179.506073 57.191921,180.067017 
	C57.908104,180.463348 58.379498,180.737518 58.957375,181.344086 
	C98.083572,210.509460 153.503311,204.109238 183.806335,167.354538 
	C184.695770,168.233963 185.292542,169.063049 185.889313,169.892151 
	C166.051239,191.562805 141.618469,203.099243 112.065193,202.744736 
	C90.899948,202.490860 71.966621,195.448761 55.130020,182.653366 
	C53.583511,181.478073 51.597340,180.862396 50.115364,179.626953 
	C48.898876,178.612854 48.128712,177.063339 47.160713,175.751144 
	C48.744930,175.079071 50.329147,174.406998 52.293564,173.970840 
z"/>
<path fill="#A8A8A8" opacity="1.000000" stroke="none" 
	d="
M87.270393,52.157951 
	C99.160858,46.967545 111.481674,45.126110 124.359802,47.209332 
	C125.923195,47.462234 127.628853,46.768833 129.218491,46.951004 
	C130.201874,47.063694 131.649139,47.833344 131.885178,48.612083 
	C132.204620,49.665951 131.906937,51.290760 131.219070,52.140339 
	C130.701355,52.779774 128.851593,53.110134 128.110489,52.683094 
	C118.084160,46.905903 107.695633,49.051815 97.653816,51.836185 
	C69.852226,59.544952 52.585178,85.609428 55.702435,114.264481 
	C55.952457,116.562775 56.048798,118.877792 56.175777,121.940628 
	C56.702744,125.092827 57.270481,127.489433 57.515068,129.656189 
	C56.580856,128.674454 55.679184,128.015976 55.402882,127.156471 
	C51.957294,116.438133 50.789337,105.612190 53.562069,94.490692 
	C58.368229,75.213081 69.827309,61.326252 87.270393,52.157951 
z"/>
<path fill="#A2A2A3" opacity="1.000000" stroke="none" 
	d="
M57.264954,58.123337 
	C73.209679,41.280125 92.616158,32.344765 115.970520,32.976109 
	C132.430328,33.421074 147.265610,38.749386 160.294205,48.962448 
	C162.342270,50.567921 164.815048,51.635220 166.842773,53.261452 
	C167.838257,54.059834 168.654282,55.524143 168.796555,56.773090 
	C168.877747,57.485760 167.393188,59.072887 166.696411,59.026360 
	C165.429352,58.941761 163.970306,58.186249 163.043854,57.258751 
	C160.877884,55.090336 159.345398,52.143127 156.916443,50.406178 
	C134.370865,34.283783 110.174828,31.719280 83.953110,42.243549 
	C81.397537,43.375832 79.202705,44.095478 77.506104,45.442619 
	C70.575699,50.945538 63.797550,56.640209 56.691265,62.117569 
	C55.973225,61.325066 55.527237,60.679253 55.353966,59.918678 
	C56.172775,59.243725 56.718864,58.683533 57.264954,58.123337 
z"/>
<path fill="#A2A2A3" opacity="1.000000" stroke="none" 
	d="
M108.184013,23.956404 
	C108.742493,23.980553 109.300980,24.004702 110.137535,24.052040 
	C111.435928,25.694723 112.456245,27.314217 113.476562,28.933712 
	C111.645889,29.302011 109.829903,29.823626 107.980919,30.000835 
	C105.522560,30.236452 102.981384,29.893093 100.574509,30.335508 
	C81.915314,33.765301 66.142807,42.364410 53.535172,57.165668 
	C53.323162,57.450184 53.336708,57.511433 53.029503,57.702576 
	C52.448246,59.240887 52.174191,60.588055 51.946724,61.919727 
	C51.993313,61.904236 51.963852,61.810566 51.963852,61.810566 
	C50.605232,62.710247 48.788761,63.306328 47.959438,64.556992 
	C40.402721,75.952988 35.990612,88.455231 34.922295,102.588577 
	C33.591087,103.009239 32.649445,103.028389 31.846588,102.645325 
	C32.420952,99.279251 32.753693,96.296013 33.307758,93.354469 
	C40.031395,57.658943 67.750214,31.591743 103.907654,26.731544 
	C105.429939,26.526920 106.762871,24.913509 108.184013,23.956404 
z"/>
<path fill="#33353A" opacity="1.000000" stroke="none" 
	d="
M87.054794,51.950939 
	C69.827309,61.326252 58.368229,75.213081 53.562069,94.490692 
	C50.789337,105.612190 51.957294,116.438133 55.402882,127.156471 
	C55.679184,128.015976 56.580856,128.674454 57.319763,129.871338 
	C56.606411,131.936157 55.765213,133.555969 54.658173,134.929520 
	C52.612679,130.067856 50.058201,125.588661 49.217819,120.808151 
	C47.567616,111.420929 47.335915,101.978165 50.005390,92.514412 
	C54.521526,76.503914 62.907475,63.343708 76.872955,54.131443 
	C79.482643,52.409977 82.925095,51.950935 85.983231,50.909302 
	C86.268547,51.187511 86.553871,51.465721 87.054794,51.950939 
z"/>
<path fill="#34363A" opacity="1.000000" stroke="none" 
	d="
M39.057224,59.156082 
	C30.146587,74.922142 23.951977,91.719162 25.405363,110.146889 
	C26.279451,121.229637 29.369608,132.141144 31.574398,143.107361 
	C31.720306,143.833099 32.807098,144.369659 33.535419,145.315552 
	C31.875965,146.617126 30.181324,147.691681 28.377817,148.532791 
	C27.621122,148.885666 25.964314,149.025269 25.861879,148.781219 
	C25.267843,147.365829 25.015127,145.807175 25.200636,144.288971 
	C28.416071,143.905121 28.445848,143.894730 27.107063,140.059601 
	C18.629961,115.775841 19.157202,91.844063 30.342327,68.515076 
	C32.048279,64.956940 35.244949,62.113533 37.752136,58.939548 
	C38.042194,58.987427 38.332256,59.035309 39.057224,59.156082 
z"/>
<path fill="#A3A2A3" opacity="1.000000" stroke="none" 
	d="
M194.242920,136.197128 
	C196.216354,127.611412 198.189804,119.025696 200.202347,110.269867 
	C203.599731,112.047386 202.040955,115.538124 201.697021,118.195808 
	C199.659409,133.940338 194.084198,148.305588 183.854401,161.303467 
	C183.337128,162.305008 183.145355,162.858841 182.625092,163.559265 
	C172.977112,174.310089 162.233246,183.010696 149.140488,188.595978 
	C148.247528,188.976898 147.543152,189.819229 146.642395,190.158249 
	C145.007019,190.773758 143.289825,191.171936 141.606781,191.660828 
	C141.754120,189.811951 141.901459,187.963058 142.478287,186.132111 
	C145.297623,185.737915 147.930191,185.836731 150.039825,184.834656 
	C171.154953,174.804825 185.938339,158.867157 194.196716,136.796570 
	C194.374634,136.523346 194.360168,136.355804 194.242920,136.197128 
z"/>
<path fill="#A7A6A7" opacity="1.000000" stroke="none" 
	d="
M86.134262,50.662605 
	C82.925095,51.950935 79.482643,52.409977 76.872955,54.131443 
	C62.907475,63.343708 54.521526,76.503914 50.005390,92.514412 
	C47.335915,101.978165 47.567616,111.420929 49.217819,120.808151 
	C50.058201,125.588661 52.612679,130.067856 54.686584,134.889709 
	C54.980843,135.096176 54.899864,135.041306 54.904320,135.352493 
	C55.227211,136.181152 55.545654,136.698608 55.864094,137.216080 
	C56.893826,139.187134 57.923557,141.158173 58.738052,143.744995 
	C58.095295,144.733231 57.667774,145.105682 57.240250,145.478134 
	C42.832531,123.770630 41.165382,101.160561 52.512352,77.671608 
	C53.810226,74.984924 55.442329,72.459694 57.290623,69.326950 
	C58.068192,67.997314 58.474598,67.200325 59.076584,66.273758 
	C59.583340,65.814087 59.894520,65.483978 60.201969,65.136475 
	C60.198238,65.119064 60.216629,65.144119 60.488991,64.959328 
	C68.022385,58.349915 75.248138,51.884228 82.601662,45.567272 
	C83.299805,44.967545 84.798317,45.299522 85.925255,45.198948 
	C86.045273,46.937935 86.165283,48.676918 86.134262,50.662605 
z"/>
<path fill="#A3A2A3" opacity="1.000000" stroke="none" 
	d="
M37.724045,58.603497 
	C35.244949,62.113533 32.048279,64.956940 30.342327,68.515076 
	C19.157202,91.844063 18.629961,115.775841 27.107063,140.059601 
	C28.445848,143.894730 28.416071,143.905121 25.427647,144.129852 
	C22.974401,134.593216 20.030018,125.305206 18.896488,115.801216 
	C16.731701,97.650696 20.636797,80.387939 29.018549,64.139618 
	C29.917385,62.397194 30.370981,60.421127 31.304129,58.701595 
	C32.073845,57.283226 33.247902,56.084274 34.242783,54.788090 
	C35.393841,55.947876 36.544895,57.107658 37.724045,58.603497 
z"/>
<path fill="#A1A1A2" opacity="1.000000" stroke="none" 
	d="
M93.780350,151.269165 
	C79.682114,144.535614 70.726143,133.603973 66.840836,118.460403 
	C66.441833,116.905212 65.193939,115.565712 64.807869,114.010002 
	C64.530869,112.893822 64.622124,111.194977 65.305954,110.469856 
	C65.989395,109.745155 67.871445,109.388985 68.754677,109.826614 
	C69.655998,110.273209 70.697807,112.093689 70.445206,112.948212 
	C68.510895,119.491638 71.933235,124.669968 74.750420,129.816666 
	C79.353447,138.225906 86.164780,144.467194 95.356567,148.675110 
	C95.027817,149.800095 94.404083,150.534622 93.780350,151.269165 
z"/>
<path fill="#A1A1A2" opacity="1.000000" stroke="none" 
	d="
M162.163849,113.985565 
	C160.689255,118.321663 159.701599,122.910843 157.613617,126.928131 
	C155.146759,131.674393 151.729187,135.926544 148.409882,140.661362 
	C148.095993,140.929825 148.002090,141.253525 148.002075,141.253510 
	C144.088867,145.094650 140.175659,148.935791 136.624908,153.066772 
	C136.987350,153.356598 136.976196,153.289505 137.000046,153.277161 
	C135.953323,152.966110 134.730652,152.896133 133.850647,152.310898 
	C132.746902,151.576874 131.402969,150.534790 131.155396,149.407623 
	C130.977478,148.597580 132.230240,146.814163 133.176956,146.514542 
	C148.733017,141.591385 154.802582,129.363068 158.400574,114.432335 
	C159.974411,114.041466 161.069122,114.013512 162.163849,113.985565 
z"/>
<path fill="#A3A2A3" opacity="1.000000" stroke="none" 
	d="
M158.138885,30.889557 
	C166.764557,37.830853 175.423416,44.731930 183.962341,51.778347 
	C184.777206,52.450802 185.281723,54.098816 185.116348,55.168041 
	C184.986465,56.007824 183.605957,57.231441 182.768951,57.241119 
	C181.678329,57.253727 179.975006,56.508389 179.569946,55.618343 
	C174.731552,44.987225 165.346146,39.457985 155.590866,33.645672 
	C156.288513,32.455807 157.213699,31.672680 158.138885,30.889557 
z"/>
<path fill="#36383C" opacity="1.000000" stroke="none" 
	d="
M85.736763,44.923241 
	C84.798317,45.299522 83.299805,44.967545 82.601662,45.567272 
	C75.248138,51.884228 68.022385,58.349915 60.183060,64.792282 
	C58.720417,64.538170 57.836063,64.266319 56.948196,63.706131 
	C56.950901,63.033283 56.957111,62.648769 56.963322,62.264256 
	C63.797550,56.640209 70.575699,50.945538 77.506104,45.442619 
	C79.202705,44.095478 81.397537,43.375832 83.667908,42.429070 
	C84.497765,43.209484 85.023018,43.928513 85.736763,44.923241 
z"/>
<path fill="#828284" opacity="1.000000" stroke="none" 
	d="
M176.002441,77.008682 
	C173.339340,78.653557 170.525696,80.099609 168.041580,81.980835 
	C160.793823,87.469559 159.437439,96.788506 164.791351,105.031670 
	C164.970749,106.177864 164.958725,106.661469 164.946701,107.145073 
	C164.541611,107.055168 164.136520,106.965263 163.403961,106.924179 
	C163.076477,106.973007 163.147659,106.923355 163.147659,106.923355 
	C154.972137,93.155067 158.910202,82.813652 175.621002,75.349174 
	C175.980087,76.080574 175.991257,76.544632 176.002441,77.008682 
z"/>
<path fill="#8B8B8C" opacity="1.000000" stroke="none" 
	d="
M165.202835,107.331345 
	C164.958725,106.661469 164.970749,106.177864 164.995483,105.331665 
	C166.981522,101.604126 168.863724,98.181488 170.949478,94.887749 
	C174.092468,89.924477 177.254852,84.961372 180.720688,80.226334 
	C181.313950,79.415810 183.460815,79.742455 184.960846,80.032524 
	C185.144119,81.345779 185.256531,82.170273 185.368942,82.994766 
	C182.594223,85.251854 179.819504,87.508934 176.674347,90.282234 
	C176.184036,91.207809 176.064178,91.617165 175.967468,92.003723 
	C175.990585,91.980927 176.036819,91.935295 175.724274,92.033875 
	C174.822723,93.043060 174.233688,93.953674 173.644669,94.864281 
	C171.942978,98.072365 170.342514,101.340652 168.488327,104.458015 
	C167.776352,105.655022 166.485855,106.507919 165.202835,107.331345 
z"/>
<path fill="#8B8B8C" opacity="1.000000" stroke="none" 
	d="
M176.340088,76.905663 
	C175.991257,76.544632 175.980087,76.080574 175.970428,75.268372 
	C180.496323,71.628952 185.020691,68.337685 190.434158,64.399643 
	C191.916977,67.605438 193.919418,71.934624 195.495514,76.678589 
	C194.776566,77.128410 194.483994,77.163445 194.191406,77.198486 
	C192.883652,74.249336 191.575912,71.300186 190.300491,68.423950 
	C185.446304,71.409523 181.062012,74.106079 176.340088,76.905663 
z"/>
<path fill="#A7A6A7" opacity="1.000000" stroke="none" 
	d="
M85.618355,166.733551 
	C93.439835,168.608627 101.261307,170.483704 109.560974,172.769592 
	C109.998444,174.091370 109.957726,175.002319 109.917007,175.913269 
	C101.526047,173.686111 93.135094,171.458954 84.822662,168.493744 
	C85.140251,167.414978 85.379303,167.074280 85.618355,166.733551 
z"/>
<path fill="#646567" opacity="1.000000" stroke="none" 
	d="
M54.952431,135.135986 
	C55.765213,133.555969 56.606411,131.936157 57.642918,130.101181 
	C57.270481,127.489433 56.702744,125.092827 56.141174,122.294006 
	C58.163101,124.394096 60.178860,126.896393 62.579620,129.589096 
	C63.338676,130.067291 63.712730,130.355087 64.039780,130.827164 
	C62.628307,133.687088 61.976074,137.240860 57.075394,135.894714 
	C56.002731,135.407227 55.451298,135.224274 54.899864,135.041321 
	C54.899864,135.041306 54.980843,135.096176 54.952431,135.135986 
z"/>
<path fill="#828284" opacity="1.000000" stroke="none" 
	d="
M176.017365,108.097595 
	C181.329788,104.877228 186.642197,101.656853 193.207748,97.676834 
	C188.588058,104.410706 183.712631,108.529724 176.357437,109.626740 
	C175.988754,108.897064 176.003067,108.497330 176.017365,108.097595 
z"/>
<path fill="#5E5F62" opacity="1.000000" stroke="none" 
	d="
M182.953598,163.412659 
	C183.145355,162.858841 183.337128,162.305008 183.717560,161.698547 
	C184.888794,161.610855 186.082962,161.203949 186.810089,161.617752 
	C188.350357,162.494293 189.646988,163.798904 191.043533,164.927963 
	C189.573929,166.552734 188.104309,168.177521 186.262009,169.847229 
	C185.292542,169.063049 184.695770,168.233963 183.721512,166.868652 
	C183.213882,165.359177 183.083740,164.385925 182.953598,163.412659 
z"/>
<path fill="#696A6D" opacity="1.000000" stroke="none" 
	d="
M93.894318,151.586273 
	C94.404083,150.534622 95.027817,149.800095 95.705521,148.756592 
	C98.122757,146.753296 100.273903,147.128815 101.607887,149.605530 
	C103.529457,153.173203 100.235825,154.486328 98.162201,156.648041 
	C97.842239,156.989807 97.650909,157.007446 97.099075,156.734146 
	C96.525375,156.172531 96.247238,156.021149 95.904160,155.989075 
	C95.904160,155.989075 96.000534,156.006302 95.992188,156.054504 
	C95.325333,154.702927 94.666817,153.303162 93.894318,151.586273 
z"/>
<path fill="#646567" opacity="1.000000" stroke="none" 
	d="
M31.707804,103.047531 
	C32.649445,103.028389 33.591087,103.009239 35.004044,102.992218 
	C35.837555,104.787682 37.093685,107.142319 36.388485,108.265450 
	C34.532143,111.221909 31.901899,109.796402 29.287075,108.087326 
	C29.000278,106.911232 29.044863,105.880043 29.287895,104.386719 
	C30.226830,103.632240 30.967316,103.339882 31.707804,103.047531 
z"/>
<path fill="#5E5F62" opacity="1.000000" stroke="none" 
	d="
M148.044037,141.652557 
	C148.002090,141.253525 148.095993,140.929825 148.189835,140.950745 
	C148.614838,140.965012 148.946335,140.965927 149.277084,140.950455 
	C152.237869,140.811752 155.365402,140.882156 155.566162,144.746857 
	C155.747635,148.240692 152.862350,148.846344 149.807449,148.876389 
	C149.356476,147.717331 149.177002,146.821793 148.997528,145.926254 
	C148.693680,144.634705 148.389847,143.343155 148.044037,141.652557 
z"/>
<path fill="#696A6D" opacity="1.000000" stroke="none" 
	d="
M194.091705,135.778519 
	C194.360168,136.355804 194.374634,136.523346 193.886078,136.651978 
	C192.409790,136.883926 191.333740,137.163651 190.257706,137.443390 
	C189.398804,137.059570 188.539886,136.675766 187.238373,136.130112 
	C184.674026,133.307022 185.672241,131.087616 188.415100,130.262573 
	C192.563171,129.014862 193.127274,132.515976 194.091705,135.778519 
z"/>
<path fill="#5E5F62" opacity="1.000000" stroke="none" 
	d="
M162.485138,113.850769 
	C161.069122,114.013512 159.974411,114.041466 158.469116,114.038612 
	C157.549622,112.604080 156.300812,110.235764 156.658279,109.961594 
	C158.311813,108.693283 160.411789,108.006973 162.749725,107.017754 
	C163.147659,106.923355 163.076477,106.973007 163.092636,106.932999 
	C163.007996,109.167328 162.907211,111.441650 162.485138,113.850769 
z"/>
<path fill="#646567" opacity="1.000000" stroke="none" 
	d="
M110.036255,176.183868 
	C109.957726,175.002319 109.998444,174.091370 110.001938,172.724579 
	C111.600449,170.081482 113.696838,169.217957 115.686714,171.411423 
	C116.561310,172.375488 116.364548,174.311493 116.654228,175.806198 
	C114.487984,176.022293 112.321747,176.238388 110.036255,176.183868 
z"/>
<path fill="#36383C" opacity="1.000000" stroke="none" 
	d="
M158.110382,30.587217 
	C157.213699,31.672680 156.288513,32.455807 155.241577,33.594204 
	C153.641220,32.507984 152.054291,31.149208 150.814301,29.525484 
	C150.650208,29.310612 152.695435,26.825447 152.966446,26.955589 
	C154.785110,27.828962 156.400558,29.125526 158.110382,30.587217 
z"/>
<path fill="#989899" opacity="1.000000" stroke="none" 
	d="
M175.677277,108.078758 
	C176.003067,108.497330 175.988754,108.897064 175.972900,109.596802 
	C172.861542,109.779877 170.694763,110.907845 169.770828,114.574402 
	C168.936554,114.887253 168.543869,114.885094 168.151169,114.882935 
	C169.980972,110.447990 171.810776,106.013046 174.050812,101.507393 
	C174.710022,101.736038 174.959015,102.035400 175.208008,102.334763 
	C174.751816,103.445610 174.295609,104.556450 173.605362,106.168442 
	C173.580750,107.061554 173.790207,107.453522 173.999649,107.845497 
	C174.445496,107.916977 174.891342,107.988449 175.677277,108.078758 
z"/>
<path fill="#5E5F62" opacity="1.000000" stroke="none" 
	d="
M168.039551,115.200668 
	C168.543869,114.885094 168.936554,114.887253 169.623413,114.904373 
	C169.917572,118.314949 169.917572,121.710579 169.917572,125.805489 
	C168.310013,125.546288 166.728012,125.291206 165.145996,125.036133 
	C165.694412,123.683067 166.365067,122.364639 166.760574,120.968262 
	C167.265823,119.184532 167.549026,117.337914 168.039551,115.200668 
z"/>
<path fill="#8B8B8C" opacity="1.000000" stroke="none" 
	d="
M175.457581,102.095230 
	C174.959015,102.035400 174.710022,101.736038 174.253601,101.231125 
	C174.628067,99.255882 175.209976,97.486214 175.809662,94.981293 
	C175.897232,93.475792 175.967026,92.705544 176.036804,91.935295 
	C176.036819,91.935295 175.990585,91.980927 176.212524,92.178009 
	C176.623642,92.308685 176.812790,92.242279 177.001953,92.175873 
	C178.400116,92.728203 179.798264,93.280525 181.196426,93.832848 
	C180.511246,95.144875 179.948120,96.541824 179.109512,97.747086 
	C178.097458,99.201561 176.851730,100.493446 175.457581,102.095230 
z"/>
<path fill="#9D9D9E" opacity="1.000000" stroke="none" 
	d="
M194.245087,77.644012 
	C194.483994,77.163445 194.776566,77.128410 195.509354,77.053474 
	C197.917572,83.804314 197.071869,90.096642 193.274780,95.946312 
	C193.623077,89.872398 193.960922,83.980972 194.245087,77.644012 
z"/>
<path fill="#A7A6A7" opacity="1.000000" stroke="none" 
	d="
M71.828339,157.928452 
	C75.579926,160.509659 79.331520,163.090866 83.083107,165.672073 
	C82.780579,166.161285 82.478050,166.650497 82.175522,167.139694 
	C77.503990,166.419861 74.135719,163.098389 70.737915,159.559845 
	C71.252708,158.529953 71.540527,158.229202 71.828339,157.928452 
z"/>
<path fill="#33353A" opacity="1.000000" stroke="none" 
	d="
M56.951706,63.994461 
	C57.836063,64.266319 58.720417,64.538170 59.910702,64.977066 
	C60.216629,65.144119 60.198238,65.119064 59.997929,65.151443 
	C59.492077,65.590317 59.186535,65.996826 58.880997,66.403336 
	C58.474598,67.200325 58.068192,67.997314 57.401184,69.008148 
	C55.533459,68.000626 53.926331,66.779266 52.405193,65.275314 
	C52.491180,64.992714 52.967243,64.991653 53.308968,64.944138 
	C54.751030,64.595909 55.851368,64.295181 56.951706,63.994461 
z"/>
<path fill="#A3A2A3" opacity="1.000000" stroke="none" 
	d="
M148.616516,146.059525 
	C149.177002,146.821793 149.356476,147.717331 149.431717,148.895126 
	C147.515198,150.317413 145.702881,151.457443 143.890564,152.597473 
	C143.490143,152.072388 143.089722,151.547318 142.689301,151.022232 
	C144.538025,149.412415 146.386765,147.802612 148.616516,146.059525 
z"/>
<path fill="#A7A6A7" opacity="1.000000" stroke="none" 
	d="
M64.690468,154.714264 
	C63.485561,153.432571 62.280655,152.150894 61.257103,150.273544 
	C61.863483,149.311432 62.288513,148.944992 62.713547,148.578552 
	C63.463531,149.374115 64.213509,150.169678 64.995697,151.758728 
	C64.915428,153.272888 64.802948,153.993576 64.690468,154.714264 
z"/>
<path fill="#A7A6A7" opacity="1.000000" stroke="none" 
	d="
M70.532562,159.281235 
	C69.050423,158.890472 68.000610,158.049179 66.996201,156.232666 
	C67.167717,154.778625 67.293823,154.299805 67.419922,153.820984 
	C68.772331,155.005707 70.124733,156.190414 71.652740,157.651794 
	C71.540527,158.229202 71.252708,158.529953 70.532562,159.281235 
z"/>
<path fill="#2A2C30" opacity="1.000000" stroke="none" 
	d="
M185.555786,82.845963 
	C185.256531,82.170273 185.144119,81.345779 185.179947,80.262161 
	C185.466339,80.901070 185.604492,81.799110 185.555786,82.845963 
z"/>
<path fill="#A3A2A3" opacity="1.000000" stroke="none" 
	d="
M67.309891,153.571381 
	C67.293823,154.299805 67.167717,154.778625 66.856583,155.976837 
	C66.095955,156.206680 65.520348,155.717117 64.817604,154.970917 
	C64.802948,153.993576 64.915428,153.272888 65.105339,152.010498 
	C65.855125,152.086456 66.527489,152.704132 67.309891,153.571381 
z"/>
<path fill="#A3A2A3" opacity="1.000000" stroke="none" 
	d="
M62.567513,148.248154 
	C62.288513,148.944992 61.863483,149.311432 61.135357,149.969910 
	C60.485146,149.927063 60.138027,149.592194 59.946156,148.261353 
	C60.246212,146.759003 60.391022,146.252625 60.535831,145.746246 
	C61.164383,146.470078 61.792934,147.193924 62.567513,148.248154 
z"/>
<path fill="#33353A" opacity="1.000000" stroke="none" 
	d="
M56.776764,58.057510 
	C56.718864,58.683533 56.172775,59.243725 55.130901,59.607605 
	C54.202312,58.778008 53.769508,58.144722 53.336708,57.511433 
	C53.336708,57.511433 53.323162,57.450184 53.354385,57.447338 
	C54.353268,57.626888 55.320923,57.809288 56.776764,58.057510 
z"/>
<path fill="#2A2C30" opacity="1.000000" stroke="none" 
	d="
M175.724274,92.033875 
	C175.967026,92.705544 175.897232,93.475792 175.728882,94.630440 
	C175.188980,94.984657 174.747681,94.954483 173.975525,94.894295 
	C174.233688,93.953674 174.822723,93.043060 175.724274,92.033875 
z"/>
<path fill="#A3A2A3" opacity="1.000000" stroke="none" 
	d="
M57.350361,145.784790 
	C57.667774,145.105682 58.095295,144.733231 58.827866,144.064514 
	C59.528408,144.220322 59.923897,144.672394 60.109436,145.713135 
	C59.509377,146.716995 59.119263,147.132172 58.729156,147.547348 
	C58.306263,147.062057 57.883366,146.576752 57.350361,145.784790 
z"/>
<path fill="#33353A" opacity="1.000000" stroke="none" 
	d="
M54.904316,135.352509 
	C55.451298,135.224274 56.002731,135.407227 56.763031,135.808640 
	C56.722378,136.288132 56.472855,136.549164 56.043716,137.013123 
	C55.545654,136.698608 55.227211,136.181152 54.904316,135.352509 
z"/>
<path fill="#8B8B8C" opacity="1.000000" stroke="none" 
	d="
M52.967243,64.991653 
	C52.967243,64.991653 52.491180,64.992714 52.253609,64.978287 
	C52.008350,64.176399 52.000664,63.388927 51.978416,62.206013 
	C51.963852,61.810566 51.993313,61.904236 52.257381,62.085056 
	C52.670048,63.174469 52.818645,64.083061 52.967243,64.991653 
z"/>
<path fill="#A7A6A7" opacity="1.000000" stroke="none" 
	d="
M84.536285,168.262238 
	C83.588379,168.542267 83.005386,168.315720 82.586029,167.388062 
	C83.010941,166.360367 83.272202,166.033813 83.533470,165.707245 
	C84.092171,165.904449 84.650879,166.101654 85.413971,166.516205 
	C85.379303,167.074280 85.140251,167.414978 84.536285,168.262238 
z"/>
<path fill="#A7A6A7" opacity="1.000000" stroke="none" 
	d="
M58.813271,147.800446 
	C59.119263,147.132172 59.509377,146.716995 60.205246,146.002899 
	C60.511002,145.703979 60.532063,145.723022 60.533947,145.734634 
	C60.391022,146.252625 60.246212,146.759003 59.878170,148.023590 
	C59.402424,148.539032 59.149906,148.296280 58.813271,147.800446 
z"/>
<path fill="#A7A6A7" opacity="1.000000" stroke="none" 
	d="
M82.353897,167.173645 
	C81.459076,167.066879 80.960022,166.473419 80.460960,165.879944 
	C81.139809,165.632095 81.818665,165.384262 83.015495,165.421829 
	C83.272202,166.033813 83.010941,166.360367 82.353897,167.173645 
z"/>
<path fill="#2A2C30" opacity="1.000000" stroke="none" 
	d="
M173.933838,107.447433 
	C173.790207,107.453522 173.580750,107.061554 173.545456,106.462891 
	C173.769073,106.520592 173.818542,106.784981 173.933838,107.447433 
z"/>
<path fill="#2A2C30" opacity="1.000000" stroke="none" 
	d="
M176.950409,91.720215 
	C176.812790,92.242279 176.623642,92.308685 176.189407,92.200806 
	C176.064178,91.617165 176.184036,91.207809 176.546631,90.576233 
	C176.825882,90.657532 176.862381,90.961044 176.950409,91.720215 
z"/>
<path fill="#322529" opacity="1.000000" stroke="none" 
	d="
M106.300522,111.193260 
	C108.208305,110.331902 109.804001,109.668556 111.511147,108.958878 
	C112.862587,115.743782 107.804153,124.447723 101.887749,126.061073 
	C100.768166,126.366371 98.926277,126.259209 98.306061,125.557327 
	C97.627762,124.789719 97.415703,122.726456 97.981346,121.895966 
	C100.456261,118.262192 103.286880,114.870682 106.300522,111.193260 
z"/>
<path fill="#27292E" opacity="1.000000" stroke="none" 
	d="
M95.983932,156.219757 
	C96.247238,156.021149 96.525375,156.172531 96.817444,156.672974 
	C96.544884,156.888031 96.267349,156.737259 95.983932,156.219757 
z"/>
<path fill="#33353A" opacity="1.000000" stroke="none" 
	d="
M31.846588,102.645325 
	C30.967316,103.339882 30.226830,103.632240 29.197617,104.007690 
	C28.904470,101.414536 28.563986,98.689247 28.946178,96.069397 
	C34.437180,58.429539 62.697582,29.574030 100.070457,23.478861 
	C102.426537,23.094606 104.937813,23.661989 107.780457,23.871525 
	C106.762871,24.913509 105.429939,26.526920 103.907654,26.731544 
	C67.750214,31.591743 40.031395,57.658943 33.307758,93.354469 
	C32.753693,96.296013 32.420952,99.279251 31.846588,102.645325 
z"/>
<path fill="#36383C" opacity="1.000000" stroke="none" 
	d="
M42.112621,150.760284 
	C43.550896,151.807327 45.177284,152.672470 46.395519,153.932297 
	C52.275574,160.013092 58.045742,166.200134 63.581791,172.671982 
	C61.608555,172.940918 59.908421,172.887390 58.208282,172.833847 
	C52.494560,166.128311 46.780838,159.422775 41.196548,152.168304 
	C41.588192,151.333023 41.850410,151.046661 42.112621,150.760284 
z"/>
<path fill="#696A6D" opacity="1.000000" stroke="none" 
	d="
M58.190083,173.135315 
	C59.908421,172.887390 61.608555,172.940918 63.734943,172.975586 
	C64.161194,172.956711 64.073105,172.993393 64.050163,173.256836 
	C64.305695,174.062057 64.584167,174.603821 64.841873,175.504486 
	C64.836845,179.905533 61.379108,179.919662 58.850891,181.011703 
	C58.379498,180.737518 57.908104,180.463348 57.200645,179.758606 
	C56.582771,178.890259 56.200966,178.452499 55.819160,178.014725 
	C55.819160,178.014725 55.934673,178.054901 55.959442,177.720215 
	C55.983646,176.595840 55.983086,175.806122 55.982525,175.016418 
	C56.712311,174.489868 57.442097,173.963318 58.190083,173.135315 
z"/>
<path fill="#27292E" opacity="1.000000" stroke="none" 
	d="
M55.705688,174.613205 
	C55.983086,175.806122 55.983646,176.595840 55.939316,177.777969 
	C54.883999,176.981766 53.873577,175.793121 52.641491,174.303925 
	C53.422832,174.072250 54.425846,174.141113 55.705688,174.613205 
z"/>
<path fill="#27292E" opacity="1.000000" stroke="none" 
	d="
M41.776917,150.612900 
	C41.850410,151.046661 41.588192,151.333023 41.122940,151.828125 
	C40.840839,151.863586 40.761776,151.690292 40.819199,151.265991 
	C41.117519,150.831848 41.279362,150.648682 41.776917,150.612900 
z"/>
<path fill="#2C2E33" opacity="1.000000" stroke="none" 
	d="
M58.957375,181.344086 
	C61.379108,179.919662 64.836845,179.905533 65.008232,175.314301 
	C65.430908,174.526291 65.666451,174.287415 65.902000,174.048523 
	C89.261940,189.770966 114.327713,193.329514 141.543823,184.936417 
	C141.996567,185.555649 142.022690,185.834915 142.048813,186.114182 
	C141.901459,187.963058 141.754120,189.811951 141.606781,191.660828 
	C143.289825,191.171936 145.007019,190.773758 146.642395,190.158249 
	C147.543152,189.819229 148.247528,188.976898 149.140488,188.595978 
	C162.233246,183.010696 172.977112,174.310089 182.625092,163.559265 
	C183.083740,164.385925 183.213882,165.359177 183.428848,166.818329 
	C153.503311,204.109238 98.083572,210.509460 58.957375,181.344086 
z"/>
<path fill="#36383C" opacity="1.000000" stroke="none" 
	d="
M142.478287,186.132111 
	C142.022690,185.834915 141.996567,185.555649 141.939270,184.856781 
	C164.134125,175.445557 180.281631,160.182739 190.012741,137.745453 
	C191.333740,137.163651 192.409790,136.883926 193.796463,136.748779 
	C185.938339,158.867157 171.154953,174.804825 150.039825,184.834656 
	C147.930191,185.836731 145.297623,185.737915 142.478287,186.132111 
z"/>
<path fill="#36383C" opacity="1.000000" stroke="none" 
	d="
M65.736244,173.812836 
	C65.666451,174.287415 65.430908,174.526291 65.028999,174.955383 
	C64.584167,174.603821 64.305695,174.062057 64.031761,173.212830 
	C64.547699,173.129288 65.059097,173.353210 65.736244,173.812836 
z"/>
<path fill="#27292E" opacity="1.000000" stroke="none" 
	d="
M55.666286,178.321594 
	C56.200966,178.452499 56.582771,178.890259 56.955853,179.636444 
	C56.469223,179.506073 55.991318,179.067276 55.666286,178.321594 
z"/>
<path fill="#27292E" opacity="1.000000" stroke="none" 
	d="
M53.308968,64.944138 
	C52.818645,64.083061 52.670048,63.174469 52.210793,62.100548 
	C52.174191,60.588055 52.448246,59.240887 53.029503,57.702576 
	C53.769508,58.144722 54.202312,58.778008 54.858185,59.722366 
	C55.527237,60.679253 55.973225,61.325066 56.691265,62.117569 
	C56.957111,62.648769 56.950901,63.033283 56.948196,63.706131 
	C55.851368,64.295181 54.751030,64.595909 53.308968,64.944138 
z"/>
<path fill="#36383C" opacity="1.000000" stroke="none" 
	d="
M59.076576,66.273758 
	C59.186535,65.996826 59.492077,65.590317 60.001659,65.168846 
	C59.894520,65.483978 59.583340,65.814087 59.076576,66.273758 
z"/>
</svg>