<svg version="1.1" id="Layer_1" xmlns="http://www.w3.org/2000/svg" xmlns:xlink="http://www.w3.org/1999/xlink" x="0px" y="0px"
	 width="100%" viewBox="0 0 216 208" enable-background="new 0 0 216 208" xml:space="preserve">
<path fill="#000000" opacity="1.000000" stroke="none" 
	d="
M1.000000,78.000000 
	C1.000000,53.000008 1.043104,28.499821 0.934559,4.000308 
	C0.923478,1.499390 1.500648,0.934137 4.000051,0.936940 
	C73.999947,1.015459 143.999954,1.015454 213.999847,0.936957 
	C216.499039,0.934155 217.066071,1.500435 217.063141,4.000004 
	C216.983932,71.333229 216.983948,138.666580 217.063095,205.999802 
	C217.066040,208.498886 216.499710,209.065887 214.000046,209.063095 
	C144.000153,208.984543 74.000061,208.960800 4.000434,209.117645 
	C0.560873,209.125336 0.974937,207.681519 0.976565,205.500153 
	C1.008164,163.166779 1.000000,120.833389 1.000000,78.000000 
z"/>
<path fill="#BBBBBB" opacity="1.000000" stroke="none" 
	d="
M164.685181,100.430153 
	C159.398438,101.291512 159.275864,106.562630 158.434738,109.426949 
	C156.241425,116.895935 152.961273,123.563286 148.606339,129.813171 
	C147.468124,131.446671 146.933075,131.560272 149.365219,132.240250 
	C151.431732,132.818008 153.291290,135.269836 152.681686,137.583710 
	C152.164352,139.547394 151.048508,141.957489 148.089890,142.047729 
	C144.933838,142.143982 142.890747,144.626999 140.553894,146.192688 
	C119.326508,160.415009 93.552856,158.593185 74.011421,142.585800 
	C69.119232,138.578354 65.195618,133.999573 61.903507,128.699097 
	C61.146969,127.480995 60.100525,124.707451 58.202236,128.172073 
	C57.148773,130.094788 54.683727,128.254974 52.782707,129.760971 
	C58.849617,140.879166 67.551926,149.513306 78.521965,155.731888 
	C85.669991,159.783890 93.378899,162.713104 101.614464,163.913757 
	C103.120605,164.133331 104.345924,163.760956 105.752457,162.868835 
	C108.053574,161.409271 110.745613,161.128906 112.926704,163.449890 
	C114.639412,165.272461 114.655022,167.411484 113.152573,169.233353 
	C111.159935,171.649582 109.016579,171.266724 106.175652,169.895401 
	C101.218498,167.502563 95.492889,167.672043 90.162125,166.201263 
	C72.346809,161.285950 59.225155,150.595230 49.985691,134.906876 
	C42.899002,122.873878 38.813774,109.884407 40.072395,95.803162 
	C41.099617,84.310745 43.860668,73.207115 51.016884,63.301216 
	C51.298256,62.791687 51.430305,62.608955 51.761551,62.152943 
	C51.960747,61.879662 52.010262,61.425106 52.087284,61.209846 
	C53.063129,59.334061 54.264519,57.842258 55.082626,55.775131 
	C55.453754,55.149212 55.754875,54.863434 55.986031,54.527142 
	C56.218292,54.189236 56.136040,54.183071 55.610905,54.746849 
	C54.632160,55.830585 53.634640,55.902462 52.263809,55.529362 
	C51.817696,55.239471 51.667625,55.088737 51.365955,54.665199 
	C50.927372,53.658970 50.893505,52.873417 50.636501,51.892422 
	C50.528355,51.673302 50.103790,51.479004 49.874706,51.583855 
	C48.449589,52.828419 47.821918,54.437752 46.257339,55.682709 
	C38.215893,65.983795 34.277428,77.670044 32.057320,90.034439 
	C31.835819,91.268036 31.899881,92.888771 32.535587,93.876724 
	C34.357582,96.708298 34.578747,99.480194 32.448212,101.984428 
	C30.060162,104.791359 27.650297,101.706635 25.034225,101.524536 
	C24.415213,115.271790 28.898710,127.594177 35.172447,139.854797 
	C36.837769,137.806976 37.852863,135.481033 40.833904,135.992859 
	C43.946579,136.527267 44.588421,139.061615 44.829536,141.301590 
	C45.338921,146.033798 48.914394,148.848053 51.646782,151.688629 
	C69.718063,170.475388 92.078369,179.503204 118.003838,176.731720 
	C133.526550,175.072281 147.874207,169.339737 160.227463,158.624588 
	C168.257477,151.659363 173.965530,143.496292 179.047714,134.537094 
	C180.519196,131.943085 181.898209,129.640274 181.165726,126.191330 
	C180.361313,122.403694 184.654266,119.636963 187.908493,121.789818 
	C191.495651,124.162910 191.663788,122.609642 192.270294,119.486877 
	C193.230484,114.542976 194.928513,109.819588 193.153687,104.624855 
	C192.571045,102.919502 191.931732,99.943268 194.873734,99.141388 
	C197.088242,98.537781 199.532852,98.796516 200.972717,101.096367 
	C202.266373,103.162659 202.430405,104.608902 200.138535,106.790359 
	C197.721313,109.091156 198.868805,113.260139 198.089981,116.572227 
	C195.049896,129.500595 190.314911,141.628220 182.226334,152.850159 
	C186.098282,152.427841 188.410522,154.750519 188.747223,157.834366 
	C189.052689,160.632050 186.398254,162.357224 183.670822,162.883728 
	C181.786804,163.247421 180.868881,164.627838 179.800995,165.796997 
	C166.986038,179.827347 151.063904,188.688049 132.874451,193.434341 
	C126.727547,195.038269 120.377045,196.440826 113.423035,195.962616 
	C112.820999,195.782837 112.667679,195.680206 112.272011,195.711243 
	C111.261749,195.888092 110.493835,195.931274 109.345520,195.909988 
	C108.803810,195.756241 108.642502,195.666992 108.251434,195.731628 
	C95.016151,196.488953 82.863457,193.108063 71.103691,187.941422 
	C62.897667,184.336136 55.016502,180.183563 48.448593,173.931244 
	C47.793545,173.307663 47.128017,173.054123 46.253716,173.009277 
	C43.199158,172.852615 42.010429,171.173325 41.949795,168.155746 
	C41.875328,164.450027 44.816704,165.296173 47.809868,164.372208 
	C39.242943,156.798370 33.642765,147.623581 27.982685,138.693985 
	C26.927008,139.811920 26.072777,139.511475 25.001240,138.606888 
	C24.688967,138.111862 24.609762,137.888962 24.533932,137.314194 
	C25.208395,135.253998 25.842009,133.542740 24.831217,131.355988 
	C19.723066,117.862679 18.457041,104.149384 19.664717,90.351089 
	C20.557470,80.150925 23.541300,70.268517 27.976986,60.536865 
	C28.355856,59.791637 28.641346,59.424625 28.933907,59.059338 
	C29.483027,58.373714 29.586002,57.505863 29.848347,56.703693 
	C29.462122,57.542347 29.476460,58.551201 28.541899,59.547203 
	C23.382282,70.937202 19.992928,82.391533 19.445028,94.641441 
	C18.898216,106.867043 20.404549,118.743935 24.524784,130.689087 
	C25.112461,132.377594 24.924709,133.645676 24.289894,135.243744 
	C23.839081,136.252777 23.464058,136.879211 22.908501,137.809204 
	C22.169758,138.875717 21.519928,139.530106 20.303862,139.999146 
	C11.330128,111.373932 8.610795,82.957260 24.141554,55.444706 
	C25.021673,53.885582 26.115320,52.460331 26.003761,50.494923 
	C25.845625,47.708927 27.305441,45.291500 29.873775,45.284176 
	C32.576256,45.276470 34.825108,47.133331 33.704582,51.874271 
	C44.846527,35.312775 58.544804,23.875381 75.746063,16.600063 
	C82.845665,13.597265 90.144882,11.731438 97.778236,11.006818 
	C97.943329,10.991145 98.111542,11.011747 98.277634,11.002908 
	C101.764397,10.817326 106.355835,5.829852 108.328484,11.437001 
	C109.425201,14.554378 111.717598,18.011637 110.786850,22.045427 
	C110.452438,23.494724 112.635132,23.926048 114.209076,24.006319 
	C131.196747,24.872684 146.226135,30.527569 158.812485,42.220688 
	C160.123764,43.438904 161.876358,43.871975 163.727341,44.159416 
	C166.474701,44.586052 165.992508,46.958771 166.007156,48.921078 
	C166.019867,50.620087 165.461166,51.985138 163.544525,51.947594 
	C161.668243,51.910835 158.666077,52.927132 158.307220,50.482868 
	C157.368896,44.091331 151.796768,42.723110 147.685455,40.085953 
	C133.759933,31.153564 118.352829,27.553764 101.879700,29.053038 
	C94.938644,29.684769 88.291779,31.768082 81.912384,34.605099 
	C80.603920,35.186996 80.523872,35.462250 81.439514,35.935825 
	C84.501274,37.519386 84.419525,39.983124 83.000755,43.470909 
	C92.498283,38.213852 102.041199,36.917618 111.873077,36.930664 
	C116.197548,36.936401 120.321373,39.002586 124.927605,37.342365 
	C126.671814,36.713703 128.774918,39.751137 129.746719,41.697933 
	C130.287521,42.781288 129.140808,44.482544 127.381927,45.296188 
	C125.295731,46.261242 123.645401,46.550476 122.199532,44.497250 
	C120.490974,42.070984 117.748924,42.208469 115.356400,42.082008 
	C111.047661,41.854263 106.712318,42.129814 102.169571,42.573540 
	C96.401123,44.893883 90.387978,45.427860 84.851685,48.557312 
	C83.441368,49.369946 82.380692,50.094673 81.150787,50.725731 
	C82.146713,50.113895 83.300751,49.566593 84.631210,48.656639 
	C90.343536,45.984116 95.991447,44.308632 102.265869,43.662781 
	C104.117157,42.753407 105.823029,43.058140 107.470894,42.985859 
	C110.496086,42.853161 111.029411,45.022709 110.943161,47.205734 
	C110.845200,49.685089 108.889259,51.802807 106.740204,50.852360 
	C100.236664,47.976105 94.725510,51.204762 89.379715,53.439335 
	C69.474487,61.759823 57.414558,82.536552 59.277031,102.478577 
	C60.902866,100.293930 62.672302,98.860298 65.384842,100.741898 
	C67.590805,102.272095 68.036217,103.765083 67.365746,106.723930 
	C65.946991,112.985062 69.699516,118.375542 72.397087,123.596138 
	C76.155533,130.869843 83.363358,134.722672 90.009224,138.966476 
	C90.733047,139.428696 91.530457,139.590408 92.656837,139.239090 
	C94.467026,138.674530 96.567627,138.436005 97.973175,140.603012 
	C99.449516,142.879150 98.850815,144.906479 97.590401,146.934265 
	C97.257553,147.469772 96.776543,147.913193 96.226784,148.559753 
	C107.717834,151.336319 118.678780,149.997086 129.772385,146.661224 
	C127.041527,145.165878 125.152451,143.131287 126.081451,139.987442 
	C126.852470,137.378265 129.391678,137.574432 131.574875,136.799240 
	C137.754074,134.605225 142.521133,130.146072 145.972488,124.642982 
	C148.969330,119.864616 152.259155,114.772194 152.206421,109.051201 
	C152.162247,104.260948 150.158890,99.522408 156.716125,97.473557 
	C157.497177,97.229515 156.482178,96.037476 156.100952,95.376228 
	C150.377258,85.447891 157.363770,72.485962 166.461349,68.108810 
	C171.410583,65.727577 176.888626,64.149384 180.713409,59.795109 
	C181.261536,59.171127 181.993835,58.686657 182.452454,58.009926 
	C185.630692,53.320187 185.683472,53.267685 188.690842,58.233849 
	C197.271606,72.403564 195.962204,87.290825 183.065277,98.417038 
	C179.785141,101.246834 175.839554,103.141655 171.471710,102.895828 
	C168.529373,102.730232 167.439514,104.379425 167.389679,106.363777 
	C167.318817,109.185036 165.176224,111.762253 166.818695,114.877083 
	C167.490341,116.150757 167.834900,118.641563 165.564178,119.659355 
	C164.178040,120.280647 162.517639,120.432716 161.271988,119.517738 
	C159.364746,118.116783 159.247574,114.970924 160.190857,114.107880 
	C163.933884,110.683228 162.903900,105.704941 165.022217,101.451874 
	C165.689545,100.313164 165.419586,99.373322 165.809647,98.269562 
	C166.929245,95.605911 168.146515,93.339554 169.338364,90.761505 
	C169.967377,90.060013 169.462662,90.728279 169.837555,90.178535 
	C170.200195,89.646790 170.182159,89.620598 169.682465,90.348724 
	C168.300369,92.780060 166.997467,94.973099 166.164886,97.748856 
	C165.257233,98.729782 165.717865,99.873772 164.685181,100.430153 
z"/>
<path fill="#FE0000" opacity="1.000000" stroke="none" 
	d="
M117.750656,89.685860 
	C116.414703,90.245888 114.814636,90.576889 115.720566,91.984291 
	C116.568001,93.300812 117.035904,95.201660 119.582634,95.083054 
	C125.393570,94.812416 131.228897,94.894569 137.047363,95.067497 
	C138.656265,95.115318 141.360977,93.821152 141.743195,96.145393 
	C142.152557,98.634804 139.925537,100.479858 137.725998,101.639954 
	C136.915268,102.067558 135.790482,101.964882 134.806458,101.985352 
	C132.644348,102.030334 130.480652,101.996315 128.317612,102.000481 
	C123.501328,102.009743 119.694710,101.114830 117.351501,108.304649 
	C113.997528,118.595871 104.788918,123.813553 93.567909,123.959251 
	C87.102104,124.043205 83.871033,119.434174 84.865997,113.067924 
	C86.562866,102.210548 94.660393,98.597298 103.712860,95.484039 
	C103.101471,94.778900 102.488609,94.023521 101.824966,93.315750 
	C99.831451,91.189644 100.420959,89.974304 103.019562,88.942154 
	C105.666283,87.890892 108.280472,86.630196 110.732101,83.995338 
	C105.942207,83.995338 101.686310,83.957939 97.431496,84.009979 
	C95.044281,84.039185 94.370277,83.086266 95.553024,81.007729 
	C97.683868,77.263054 99.677994,74.148689 105.262001,74.808083 
	C112.154213,75.621941 119.221123,75.171448 126.201958,74.943321 
	C130.790649,74.793358 130.512268,76.950699 129.402115,80.143356 
	C127.498901,85.616768 121.899033,86.450981 117.750656,89.685860 
z"/>
<path fill="#BBBABA" opacity="1.000000" stroke="none" 
	d="
M165.336792,36.742859 
	C160.040344,32.229881 155.659103,26.891214 148.141678,26.917419 
	C146.612045,26.922752 146.051102,25.622334 145.974106,24.098766 
	C145.862244,21.885015 145.865021,19.529781 147.877777,18.333723 
	C149.129715,17.589775 151.044678,17.349693 152.428146,18.905481 
	C159.818207,27.215990 170.691956,31.681328 177.014771,41.147587 
	C177.783447,42.298420 178.726532,41.750629 179.581177,42.018867 
	C182.178192,42.833954 183.184387,44.723366 183.027191,47.323326 
	C182.849365,50.264431 180.677551,49.953732 178.664185,50.015297 
	C176.179886,50.091263 174.260681,50.064770 173.903641,46.619076 
	C173.396729,41.727119 169.057709,39.619736 165.336792,36.742859 
z"/>
<path fill="#BFBFBF" opacity="1.000000" stroke="none" 
	d="
M46.342064,56.054535 
	C46.028061,53.293343 47.825390,51.747463 49.768982,50.018280 
	C50.500328,49.632904 50.939796,49.522038 51.717628,49.805527 
	C51.999939,51.100677 51.994194,52.183895 51.980980,53.673256 
	C51.657188,54.317699 51.550064,54.616135 51.975845,54.997849 
	C53.261848,54.764675 54.283264,54.525352 55.592430,54.144295 
	C56.071857,54.110500 56.263535,54.218449 56.256622,54.589920 
	C55.873260,57.333698 55.516384,59.722717 52.510773,60.942917 
	C50.318729,59.425339 46.307178,60.347042 46.342064,56.054535 
z"/>
<path fill="#BFBEBE" opacity="1.000000" stroke="none" 
	d="
M20.144501,140.397583 
	C20.499914,139.454773 21.030752,138.828842 21.848240,138.074280 
	C22.757326,137.406509 23.462749,137.269058 24.557007,137.727951 
	C25.646231,138.273254 26.424681,138.600021 27.518524,138.964600 
	C26.159979,143.219009 23.300648,142.233109 20.144501,140.397583 
z"/>
<path fill="#BFBFBF" opacity="1.000000" stroke="none" 
	d="
M51.712074,61.970627 
	C51.902142,62.194462 51.763466,62.468773 51.355461,62.838509 
	C51.265270,62.670139 51.364338,62.365864 51.712074,61.970627 
z"/>
<path fill="#CCCCCC" opacity="1.000000" stroke="none" 
	d="
M108.260132,195.936829 
	C108.274513,195.775925 108.527351,195.666321 108.872658,195.701111 
	C108.965126,195.845505 108.498596,195.988113 108.260132,195.936829 
z"/>
<path fill="#CCCCCC" opacity="1.000000" stroke="none" 
	d="
M112.263199,195.916382 
	C112.291420,195.757080 112.553169,195.669250 112.894623,195.733459 
	C112.974319,195.885483 112.496735,195.987854 112.263199,195.916382 
z"/>
<path fill="#000000" opacity="1.000000" stroke="none" 
	d="
M137.813904,186.040894 
	C127.044960,190.788528 115.540138,189.836395 104.165443,190.063461 
	C89.451012,190.357178 76.081444,186.074249 63.741402,178.247787 
	C62.104008,177.209320 60.428013,176.231735 58.446762,175.091339 
	C56.695904,172.489822 58.905945,172.234451 60.542522,171.228851 
	C61.280937,167.462433 63.057770,168.393616 65.155380,169.598404 
	C71.776459,173.401337 78.359535,177.268127 85.794289,179.408234 
	C102.510254,184.219955 119.109192,184.535629 136.273651,178.186096 
	C134.761627,180.644180 134.749847,182.732300 136.704224,184.800568 
	C137.248978,185.252701 137.479599,185.520691 137.813904,186.040894 
z"/>
<path fill="#000000" opacity="1.000000" stroke="none" 
	d="
M161.976501,94.849716 
	C159.425812,95.180481 159.211609,93.499855 158.956512,91.513939 
	C157.701218,81.741890 161.946564,75.307388 170.468781,70.840424 
	C175.756073,68.069061 181.826004,66.372383 185.539902,60.655849 
	C190.996765,69.172844 191.984131,77.769508 187.775055,86.181030 
	C184.334900,93.055908 178.415924,97.643799 169.478470,99.578072 
	C173.050797,95.549126 173.464005,90.932991 178.237183,88.886650 
	C180.947159,87.724838 177.730942,84.337173 176.594254,83.842781 
	C172.010178,81.848976 175.154083,80.391357 176.656250,78.954315 
	C177.560089,78.089661 178.829727,77.235168 180.013046,77.109161 
	C182.830872,76.809090 183.157532,75.042114 182.967819,72.895332 
	C182.731430,70.220230 180.588989,70.179565 178.622955,70.000366 
	C176.502762,69.807098 175.196533,70.448853 174.954239,72.892670 
	C174.643616,76.025482 171.826508,77.750954 170.346878,80.242699 
	C167.541687,84.966728 164.801254,89.729210 161.976501,94.849716 
z"/>
<path fill="#000000" opacity="1.000000" stroke="none" 
	d="
M24.296247,132.131195 
	C19.205433,118.215134 17.843306,104.015976 19.190464,89.786140 
	C20.203564,79.084892 22.825157,68.507225 28.101585,58.518143 
	C28.651447,58.271954 28.925903,58.263409 29.140755,58.662415 
	C27.604944,63.298210 26.139175,67.530136 24.650759,71.754082 
	C17.620178,91.706009 18.231030,111.511627 25.805710,131.555496 
	C25.477737,132.272156 25.046955,132.428192 24.296247,132.131195 
z"/>
<path fill="#000000" opacity="1.000000" stroke="none" 
	d="
M45.727646,95.272385 
	C45.887459,85.428406 48.822350,76.626839 53.603939,68.087936 
	C54.212334,67.871002 54.497063,67.814743 54.747086,68.192451 
	C49.628277,79.210922 46.471386,90.240089 47.061310,102.573021 
	C47.385078,103.432838 47.481430,103.871811 47.299816,104.654297 
	C47.790321,110.974617 49.389328,116.799042 50.351646,122.737373 
	C45.839275,114.665451 45.838692,105.800209 45.948830,96.439423 
	C45.789330,95.822006 45.704521,95.667709 45.727646,95.272385 
z"/>
<path fill="#000000" opacity="1.000000" stroke="none" 
	d="
M58.769310,74.115555 
	C56.080090,82.171158 53.131443,90.268990 53.251465,99.052864 
	C53.338558,105.427254 54.260136,111.694496 56.398296,117.730118 
	C56.675362,118.512222 57.281834,119.148682 56.360840,119.846405 
	C49.940327,110.295204 50.118305,87.391502 58.769310,74.115555 
z"/>
<path fill="#000000" opacity="1.000000" stroke="none" 
	d="
M35.310974,62.276554 
	C30.047058,72.660835 27.612650,83.497063 25.698553,94.482864 
	C25.162748,80.726967 30.124908,68.643372 37.208080,56.012230 
	C37.300545,58.995335 36.428101,60.481495 35.310974,62.276554 
z"/>
<path fill="#000000" opacity="1.000000" stroke="none" 
	d="
M75.834396,30.347351 
	C83.431313,25.957014 91.550285,23.837494 99.782860,22.080050 
	C101.656502,21.680075 103.294861,22.195902 104.657539,23.892931 
	C94.950897,24.041555 86.049370,27.046755 76.908150,30.505793 
	C76.327438,30.754826 76.037369,30.764359 75.834396,30.347351 
z"/>
<path fill="#000000" opacity="1.000000" stroke="none" 
	d="
M102.466888,43.555115 
	C100.376869,46.300198 97.106148,44.805439 94.349319,45.748291 
	C91.201508,46.824867 88.199577,48.505661 84.505463,49.087292 
	C89.002274,44.869648 94.946877,43.648354 101.531296,42.994446 
	C102.071014,43.081612 102.190979,43.211266 102.466888,43.555115 
z"/>
<path fill="#000000" opacity="1.000000" stroke="none" 
	d="
M84.428024,19.911690 
	C80.349899,23.346186 74.536522,24.040035 69.467712,27.068192 
	C68.827438,27.133245 68.554459,27.156466 68.285919,26.768757 
	C72.945160,22.726978 78.316414,20.887596 84.428024,19.911690 
z"/>
<path fill="#000000" opacity="1.000000" stroke="none" 
	d="
M65.750641,123.724709 
	C62.644684,119.024368 60.785076,114.066757 60.350883,108.619781 
	C62.222179,113.149124 64.093475,117.678459 66.007500,122.581879 
	C66.083946,123.221634 66.117653,123.487320 65.750641,123.724709 
z"/>
<path fill="#000000" opacity="1.000000" stroke="none" 
	d="
M84.852798,19.861652 
	C90.052444,17.033955 95.881767,17.229185 101.603745,16.923264 
	C96.286942,17.937681 90.970146,18.952099 85.212311,19.874378 
	C84.771271,19.782242 84.828682,19.832214 84.852798,19.861652 
z"/>
<path fill="#000000" opacity="1.000000" stroke="none" 
	d="
M145.737518,183.667511 
	C144.746353,184.167221 143.583801,184.807114 143.383469,184.583801 
	C142.378250,183.463272 143.633987,182.522308 144.299942,182.382812 
	C147.947937,181.618652 150.854736,179.139404 154.492447,178.315460 
	C152.194061,180.895538 148.912491,181.846252 145.737518,183.667511 
z"/>
<path fill="#BFBFBF" opacity="1.000000" stroke="none" 
	d="
M60.499344,170.997421 
	C61.020432,173.059326 58.050495,172.403015 58.073463,174.615356 
	C55.447205,174.571594 53.559689,173.771088 55.953411,170.448914 
	C56.338554,169.760666 56.765831,169.552124 57.617699,169.699524 
	C58.419022,170.777283 59.244537,170.979553 60.499344,170.997421 
z"/>
<path fill="#000000" opacity="1.000000" stroke="none" 
	d="
M52.335705,39.684124 
	C50.477074,41.984695 48.889965,44.070816 45.342987,46.035656 
	C47.187885,41.994957 48.502766,39.341694 52.335705,39.684124 
z"/>
<path fill="#BFBEBE" opacity="1.000000" stroke="none" 
	d="
M24.007124,132.214844 
	C24.443745,131.904556 24.841398,131.938309 25.538918,131.947815 
	C27.702671,133.532715 27.198599,135.087753 25.441975,136.808350 
	C24.490801,136.971222 23.854826,136.863312 23.160732,136.142792 
	C23.323893,134.757202 23.646025,133.658035 24.007124,132.214844 
z"/>
<path fill="#BFBFBF" opacity="1.000000" stroke="none" 
	d="
M56.570122,163.759857 
	C57.772770,164.086960 58.912460,163.715332 59.406364,164.733948 
	C59.869686,165.689545 58.720417,165.973053 58.133209,166.841980 
	C57.280411,167.625488 56.533241,167.762131 55.379265,167.321213 
	C55.027225,166.366806 55.013668,165.620605 55.001236,164.501221 
	C55.314289,163.704224 55.737225,163.526993 56.570122,163.759857 
z"/>
<path fill="#000000" opacity="1.000000" stroke="none" 
	d="
M169.706390,168.755188 
	C168.874207,169.700272 168.119370,170.263870 167.312973,169.902344 
	C166.021179,169.323196 166.988571,168.536896 167.475662,168.101593 
	C168.845627,166.877274 169.738342,164.869278 172.131088,164.852264 
	C172.483109,166.901245 170.725494,167.381653 169.706390,168.755188 
z"/>
<path fill="#000000" opacity="1.000000" stroke="none" 
	d="
M170.129059,89.653831 
	C168.900742,92.668823 167.727936,95.275162 166.246582,97.905746 
	C166.091171,94.922295 167.637314,92.406380 169.090851,89.519836 
	C169.635101,89.266426 169.909821,89.255798 170.129059,89.653831 
z"/>
<path fill="#000000" opacity="1.000000" stroke="none" 
	d="
M46.698776,153.243652 
	C47.673759,154.226913 48.545849,155.283813 47.648773,155.949905 
	C46.478451,156.818863 45.898560,155.197464 45.122166,154.586380 
	C44.174332,153.840378 43.566490,152.884506 44.530056,151.784760 
	C44.610950,151.692413 45.771015,152.545609 46.698776,153.243652 
z"/>
<path fill="#000000" opacity="1.000000" stroke="none" 
	d="
M166.722839,161.974609 
	C165.462799,159.252487 168.131149,159.034592 169.693512,156.776047 
	C170.246033,160.027802 168.614990,160.951721 166.722839,161.974609 
z"/>
<path fill="#000000" opacity="1.000000" stroke="none" 
	d="
M185.266129,136.885345 
	C185.011658,134.166489 186.289963,131.990967 188.672531,130.331940 
	C187.640091,132.498489 186.607666,134.665039 185.266129,136.885345 
z"/>
<path fill="#000000" opacity="1.000000" stroke="none" 
	d="
M95.619949,142.387589 
	C95.983498,143.797348 96.232277,145.001648 94.454361,144.963608 
	C93.473991,144.942627 93.046921,144.465332 93.026848,143.526443 
	C92.988800,141.746902 94.225838,142.029495 95.619949,142.387589 
z"/>
<path fill="#000000" opacity="1.000000" stroke="none" 
	d="
M55.023849,167.465912 
	C55.771492,167.078995 56.502201,167.044983 57.595673,167.062988 
	C57.965790,167.803772 57.973148,168.492569 57.965889,169.525177 
	C57.515739,169.915482 57.080200,169.961975 56.323479,170.082077 
	C54.784748,169.754028 55.037682,168.726013 55.023849,167.465912 
z"/>
<path fill="#000000" opacity="1.000000" stroke="none" 
	d="
M184.872040,136.862320 
	C185.081543,139.421860 183.284622,141.054413 181.914062,142.902786 
	C181.797882,140.632294 182.831696,138.835587 184.621140,137.073517 
	C184.957031,136.939087 184.897537,136.890884 184.872040,136.862320 
z"/>
<path fill="#000000" opacity="1.000000" stroke="none" 
	d="
M53.447166,125.715637 
	C52.991798,124.149117 53.750832,123.383041 54.940723,123.121780 
	C55.797890,122.933556 55.903816,123.719696 55.968735,124.353378 
	C56.151402,126.136436 54.935760,125.998299 53.447166,125.715637 
z"/>
<path fill="#000000" opacity="1.000000" stroke="none" 
	d="
M109.048210,165.049316 
	C110.544266,165.081940 111.433929,165.412216 110.626877,166.709427 
	C110.156647,167.465256 109.375809,168.493362 108.399765,167.607056 
	C107.668083,166.942627 107.830040,165.859848 109.048210,165.049316 
z"/>
<path fill="#000000" opacity="1.000000" stroke="none" 
	d="
M155.279449,104.543945 
	C154.964584,103.020042 154.920288,101.882973 156.667908,102.046509 
	C157.334839,102.108925 158.067612,102.248428 157.876099,103.077568 
	C157.604141,104.255005 156.842514,105.021889 155.279449,104.543945 
z"/>
<path fill="#000000" opacity="1.000000" stroke="none" 
	d="
M79.447372,52.063652 
	C79.616280,49.789684 81.797470,49.792645 83.789474,49.088428 
	C84.162521,49.152813 84.107826,49.102692 84.086983,49.076942 
	C83.239227,50.930698 81.365280,51.272736 79.447372,52.063652 
z"/>
<path fill="#000000" opacity="1.000000" stroke="none" 
	d="
M186.530212,124.218941 
	C187.715042,125.078560 188.108383,125.815857 186.922333,126.544464 
	C186.406662,126.861259 185.660049,127.327721 185.301483,126.577835 
	C184.830872,125.593575 184.436142,124.378441 186.530212,124.218941 
z"/>
<path fill="#000000" opacity="1.000000" stroke="none" 
	d="
M68.500778,35.103367 
	C68.399757,32.683846 70.809830,32.955021 72.569786,31.951088 
	C72.456055,34.159496 70.253952,34.085278 68.500778,35.103367 
z"/>
<path fill="#000000" opacity="1.000000" stroke="none" 
	d="
M196.457916,104.797211 
	C195.216537,103.942825 194.917084,103.204071 196.067657,102.469521 
	C196.590302,102.135857 197.336823,101.700409 197.680573,102.449509 
	C198.121338,103.409981 198.605133,104.653740 196.457916,104.797211 
z"/>
<path fill="#000000" opacity="1.000000" stroke="none" 
	d="
M58.030041,42.770271 
	C58.271183,40.991768 59.027916,39.627487 61.206478,40.330616 
	C60.949608,41.996712 60.050804,42.872612 58.030041,42.770271 
z"/>
<path fill="#000000" opacity="1.000000" stroke="none" 
	d="
M59.176159,74.181221 
	C58.865223,72.032425 60.059845,70.532082 61.759926,69.100296 
	C61.815441,70.926216 60.964844,72.468674 59.387932,73.948593 
	C59.090027,74.102493 59.149834,74.152481 59.176159,74.181221 
z"/>
<path fill="#000000" opacity="1.000000" stroke="none" 
	d="
M28.544743,58.485260 
	C29.567945,57.056034 29.159756,54.627079 32.028931,53.842361 
	C31.089924,55.838123 30.398409,57.307861 29.394022,58.923782 
	C28.958265,58.943314 28.835379,58.816666 28.544743,58.485260 
z"/>
<path fill="#000000" opacity="1.000000" stroke="none" 
	d="
M52.152451,54.778976 
	C51.904785,55.794830 52.180565,57.192875 50.688103,56.874882 
	C50.144695,56.759102 49.282848,56.026958 49.327087,55.670437 
	C49.446953,54.704498 50.178093,54.040424 51.625877,54.045570 
	C51.973503,54.079399 52.064472,54.553963 52.152451,54.778976 
z"/>
<path fill="#000000" opacity="1.000000" stroke="none" 
	d="
M22.709009,135.992126 
	C23.625202,136.036255 24.248640,136.216156 25.012293,136.695984 
	C25.152506,136.995911 25.000166,137.468216 24.933971,137.707352 
	C24.184227,137.958557 23.500673,137.970627 22.476007,137.964172 
	C22.228682,137.339737 22.322468,136.733826 22.709009,135.992126 
z"/>
<path fill="#000000" opacity="1.000000" stroke="none" 
	d="
M148.884933,137.027756 
	C148.087860,138.086609 147.205872,138.291077 146.374039,137.580093 
	C146.175323,137.410248 146.174667,136.613525 146.373260,136.442719 
	C147.213043,135.720428 148.087692,135.960571 148.884933,137.027756 
z"/>
<path fill="#000000" opacity="1.000000" stroke="none" 
	d="
M68.904373,26.915014 
	C67.771263,28.487629 66.133728,29.122812 63.937233,28.639374 
	C65.200981,28.027134 66.464722,27.414896 68.009422,26.580242 
	C68.429695,26.478552 68.569008,26.599276 68.904373,26.915014 
z"/>
<path fill="#000000" opacity="1.000000" stroke="none" 
	d="
M74.845459,46.364594 
	C76.204346,44.637051 77.626244,43.770863 80.246834,44.324181 
	C78.521675,45.157299 77.343971,45.726040 75.895386,46.516987 
	C75.334145,46.756489 75.043800,46.773785 74.845459,46.364594 
z"/>
<path fill="#000000" opacity="1.000000" stroke="none" 
	d="
M86.685318,143.838959 
	C88.025986,144.113388 89.174438,143.644684 89.834084,144.603119 
	C89.988144,144.826950 89.670265,145.740143 89.414452,145.816483 
	C88.463814,146.100143 87.442566,146.189819 86.511826,144.897980 
	C86.270081,144.344681 86.271103,144.067291 86.685318,143.838959 
z"/>
<path fill="#000000" opacity="1.000000" stroke="none" 
	d="
M29.044863,97.103439 
	C30.189398,97.900101 30.450832,98.778946 29.612774,99.618713 
	C29.405657,99.826256 28.624298,99.832687 28.444559,99.630859 
	C27.687256,98.780525 27.938475,97.897247 29.044863,97.103439 
z"/>
<path fill="#000000" opacity="1.000000" stroke="none" 
	d="
M184.672913,158.673309 
	C183.303497,159.079773 182.589951,158.422745 182.329819,157.505020 
	C182.248474,157.218033 183.254440,156.225067 183.517868,156.310471 
	C184.416641,156.601822 185.082947,157.306686 184.672913,158.673309 
z"/>
<path fill="#000000" opacity="1.000000" stroke="none" 
	d="
M86.483437,144.446472 
	C84.810463,143.849258 83.351875,143.076462 81.509804,142.100479 
	C83.938232,141.165894 85.107185,143.073212 86.914261,143.562286 
	C86.964935,144.015656 86.831375,144.143280 86.483437,144.446472 
z"/>
<path fill="#000000" opacity="1.000000" stroke="none" 
	d="
M72.961548,31.974258 
	C73.367271,30.905405 74.024170,30.119478 75.592529,29.957684 
	C76.043510,30.053123 76.165520,30.185436 76.452530,30.531519 
	C75.945793,31.977720 74.799454,32.046341 73.240646,31.936518 
	C72.884377,31.895893 72.938316,31.945795 72.961548,31.974258 
z"/>
<path fill="#000000" opacity="1.000000" stroke="none" 
	d="
M68.474762,52.050972 
	C68.056923,51.181095 67.745956,50.089928 69.297607,50.121552 
	C69.600334,50.127724 70.154327,50.302238 70.159645,50.418846 
	C70.200607,51.316933 69.794716,51.918530 68.474762,52.050972 
z"/>
<path fill="#000000" opacity="1.000000" stroke="none" 
	d="
M70.050995,130.875488 
	C70.544006,129.106659 71.288170,129.810913 71.648796,130.417755 
	C71.896095,130.833878 71.621620,131.560074 71.580383,132.147675 
	C71.082550,131.872452 70.584717,131.597244 70.050995,130.875488 
z"/>
<path fill="#000000" opacity="1.000000" stroke="none" 
	d="
M67.265869,125.277748 
	C68.497063,126.006409 69.652580,126.932060 68.693787,127.910843 
	C67.785385,128.838181 67.228172,127.752632 66.993423,126.419357 
	C66.922478,125.779465 66.895096,125.514801 67.265869,125.277748 
z"/>
<path fill="#000000" opacity="1.000000" stroke="none" 
	d="
M75.461945,46.531029 
	C74.931213,47.593868 73.974968,48.688911 73.024849,47.717659 
	C72.130829,46.803745 73.231651,46.234749 74.560066,45.979515 
	C75.058098,46.066364 75.178749,46.194614 75.461945,46.531029 
z"/>
<path fill="#000000" opacity="1.000000" stroke="none" 
	d="
M81.176086,140.104233 
	C80.407501,141.095245 79.546753,141.203476 78.931770,140.115601 
	C78.820694,139.919113 78.818268,139.456573 78.945808,139.363403 
	C79.711884,138.803665 80.417107,139.007858 81.176086,140.104233 
z"/>
<path fill="#000000" opacity="1.000000" stroke="none" 
	d="
M160.334534,165.384232 
	C161.201111,165.259689 161.741196,165.427475 162.281281,165.595276 
	C161.892609,166.033096 161.569489,166.729385 161.100006,166.848419 
	C160.388611,167.028763 159.416779,166.950226 160.334534,165.384232 
z"/>
<path fill="#000000" opacity="1.000000" stroke="none" 
	d="
M40.728836,145.478516 
	C40.948765,146.412277 41.208794,147.208740 40.302319,147.247330 
	C39.922256,147.263504 39.263832,146.824142 39.176331,146.479156 
	C38.922295,145.477615 39.468895,144.999802 40.728836,145.478516 
z"/>
<path fill="#000000" opacity="1.000000" stroke="none" 
	d="
M71.731895,41.255901 
	C70.996788,42.480885 70.074837,43.675072 69.078163,42.726845 
	C68.106339,41.802265 69.245346,41.256191 70.550369,40.964115 
	C71.200943,40.895031 71.473541,40.870304 71.731895,41.255901 
z"/>
<path fill="#000000" opacity="1.000000" stroke="none" 
	d="
M67.182831,42.953499 
	C68.927170,43.462166 68.222481,44.236153 67.614296,44.625908 
	C67.207283,44.886749 66.452934,44.605618 65.854012,44.567005 
	C66.145737,44.057987 66.437462,43.548973 67.182831,42.953499 
z"/>
<path fill="#000000" opacity="1.000000" stroke="none" 
	d="
M54.116692,68.110031 
	C54.039612,66.847893 54.142204,65.344879 55.586163,65.865051 
	C56.596508,66.229004 55.981430,67.436432 54.982716,68.381042 
	C54.576843,68.515205 54.441307,68.403999 54.116692,68.110031 
z"/>
<path fill="#000000" opacity="1.000000" stroke="none" 
	d="
M56.413177,63.252651 
	C58.042164,62.368950 58.033363,63.405144 57.854233,64.074638 
	C57.731007,64.535210 57.030251,64.841255 56.587624,65.216370 
	C56.426105,64.665436 56.264587,64.114502 56.413177,63.252651 
z"/>
<path fill="#000000" opacity="1.000000" stroke="none" 
	d="
M156.272461,168.779465 
	C157.068420,167.611374 157.924866,166.152985 158.997559,167.105988 
	C159.997345,167.994202 158.850586,168.694504 157.462158,169.030884 
	C156.798737,169.114883 156.527710,169.152222 156.272461,168.779465 
z"/>
<path fill="#000000" opacity="1.000000" stroke="none" 
	d="
M65.865234,123.131683 
	C67.102013,123.164757 66.871010,124.210663 67.471664,125.072380 
	C67.551315,125.434601 67.438599,125.563828 67.137871,125.868591 
	C65.881554,125.834419 66.154663,124.778625 65.551865,123.922165 
	C65.460022,123.566750 65.570129,123.437080 65.865234,123.131683 
z"/>
<path fill="#000000" opacity="1.000000" stroke="none" 
	d="
M180.392700,143.414459 
	C182.052963,143.829880 180.894089,144.668381 180.730377,145.402145 
	C180.605011,145.964020 179.812775,145.857819 179.736404,145.471115 
	C179.630447,144.934540 179.947113,144.314514 180.392700,143.414459 
z"/>
<path fill="#000000" opacity="1.000000" stroke="none" 
	d="
M179.010986,147.799927 
	C178.530624,148.769821 177.786316,149.078156 177.759720,148.290878 
	C177.740280,147.716354 177.611343,146.255722 178.957443,146.337509 
	C179.709167,146.383194 179.151566,147.002991 179.010986,147.799927 
z"/>
<path fill="#000000" opacity="1.000000" stroke="none" 
	d="
M58.988495,32.757820 
	C60.487331,34.176674 58.786091,33.760670 58.217834,34.167614 
	C57.718616,34.525116 57.107861,34.120285 57.240501,33.870991 
	C57.466255,33.446682 58.119259,33.249691 58.988495,32.757820 
z"/>
<path fill="#000000" opacity="1.000000" stroke="none" 
	d="
M42.615021,148.452789 
	C43.026463,149.351120 43.331139,149.967468 43.211224,150.485519 
	C43.126041,150.853500 42.355831,150.909241 42.226665,150.357620 
	C42.058800,149.640732 40.919060,148.792465 42.615021,148.452789 
z"/>
<path fill="#000000" opacity="1.000000" stroke="none" 
	d="
M175.144287,152.794144 
	C174.584442,153.762665 173.821686,154.115677 173.766754,153.303009 
	C173.725983,152.699829 173.621552,151.218719 175.028183,151.282059 
	C175.788788,151.316315 175.315292,151.973587 175.144287,152.794144 
z"/>
<path fill="#000000" opacity="1.000000" stroke="none" 
	d="
M56.773254,163.592316 
	C56.461609,163.962173 56.039337,163.968063 55.309715,164.050995 
	C54.518639,163.824432 53.604420,163.489044 54.162186,162.876846 
	C54.942173,162.020752 55.786976,163.261459 56.773254,163.592316 
z"/>
<path fill="#000000" opacity="1.000000" stroke="none" 
	d="
M165.564911,171.603989 
	C164.665726,172.029114 164.081558,172.145737 163.497375,172.262360 
	C163.549072,171.889053 163.502029,171.250839 163.669617,171.188370 
	C164.386322,170.921234 165.237350,169.790787 165.564911,171.603989 
z"/>
<path fill="#000000" opacity="1.000000" stroke="none" 
	d="
M38.003376,55.175125 
	C38.512005,54.191669 39.280548,53.895718 39.373856,54.662525 
	C39.458088,55.354801 39.362091,56.691624 38.078976,56.652527 
	C37.305878,56.628967 37.868076,55.986286 38.003376,55.175125 
z"/>
<path fill="#000000" opacity="1.000000" stroke="none" 
	d="
M76.550583,54.652908 
	C75.640961,55.069145 75.017456,55.374378 74.489174,55.255699 
	C74.126129,55.174133 74.059532,54.364937 74.616051,54.259113 
	C75.342224,54.121033 76.205208,52.972588 76.550583,54.652908 
z"/>
<path fill="#000000" opacity="1.000000" stroke="none" 
	d="
M164.527496,100.485352 
	C164.700989,99.574692 165.043625,98.864601 165.662140,98.042252 
	C165.938004,97.929985 165.880280,97.882133 165.850464,97.851883 
	C165.788513,98.792381 165.756363,99.763130 165.395844,100.895515 
	C164.943863,100.933418 164.820236,100.809669 164.527496,100.485352 
z"/>
<path fill="#000000" opacity="1.000000" stroke="none" 
	d="
M61.193180,30.994431 
	C62.005596,30.851803 62.638721,30.283798 62.681843,31.052231 
	C62.758163,32.412418 61.295284,32.320103 60.688507,32.288700 
	C59.894089,32.247597 60.199116,31.487232 61.193180,30.994431 
z"/>
<path fill="#000000" opacity="1.000000" stroke="none" 
	d="
M71.118454,41.114006 
	C71.724304,39.924683 72.970543,39.311771 73.843086,40.117886 
	C74.327332,40.565273 72.925560,40.933254 72.008972,41.452454 
	C71.581291,41.546902 71.444923,41.427578 71.118454,41.114006 
z"/>
<path fill="#000000" opacity="1.000000" stroke="none" 
	d="
M169.530319,89.480988 
	C169.738098,88.626434 170.115829,87.975807 170.493561,87.325180 
	C171.380096,88.078873 170.950424,88.936989 170.380997,89.922134 
	C169.949112,89.936630 169.824692,89.810776 169.530319,89.480988 
z"/>
<path fill="#000000" opacity="1.000000" stroke="none" 
	d="
M61.607780,59.583160 
	C59.943127,59.170296 61.096947,58.329014 61.264725,57.596054 
	C61.392635,57.037262 62.190533,57.140797 62.266552,57.524624 
	C62.372906,58.061623 62.054825,58.682682 61.607780,59.583160 
z"/>
<path fill="#000000" opacity="1.000000" stroke="none" 
	d="
M42.738770,49.031254 
	C43.194534,48.149776 43.387577,47.495914 43.811901,47.262508 
	C44.072376,47.119225 44.477676,47.688641 44.146309,48.199551 
	C43.761215,48.793304 44.185619,50.404377 42.738770,49.031254 
z"/>
<path fill="#000000" opacity="1.000000" stroke="none" 
	d="
M65.055992,64.351524 
	C64.870338,65.241791 65.031296,67.043030 64.219315,66.645699 
	C63.077129,66.086792 64.064674,64.917000 65.055992,64.351524 
z"/>
<path fill="#000000" opacity="1.000000" stroke="none" 
	d="
M175.752899,161.169861 
	C176.073502,160.637451 176.277542,160.472870 176.481583,160.308304 
	C176.595047,160.700531 176.708511,161.092743 176.821991,161.484970 
	C176.426773,161.502548 176.031570,161.520142 175.752899,161.169861 
z"/>
<path fill="#000000" opacity="1.000000" stroke="none" 
	d="
M161.984924,173.985565 
	C161.423050,173.737350 160.823212,173.434921 161.515091,173.101639 
	C161.841980,172.944122 162.238861,172.931915 162.604034,172.853882 
	C162.529373,173.211563 162.454712,173.569244 161.984924,173.985565 
z"/>
<path fill="#F5F5F5" opacity="1.000000" stroke="none" 
	d="
M141.219147,185.658020 
	C140.911682,185.637115 140.748367,185.489761 140.585037,185.342422 
	C140.844467,185.405472 141.103882,185.468536 141.219147,185.658020 
z"/>
<path fill="#000000" opacity="1.000000" stroke="none" 
	d="
M156.881805,168.892319 
	C156.755051,169.920776 156.201477,170.198441 155.406616,169.714645 
	C155.372452,169.693863 155.695724,169.085800 156.070374,168.560349 
	C156.423447,168.481964 156.558640,168.594543 156.881805,168.892319 
z"/>
<path fill="#000000" opacity="1.000000" stroke="none" 
	d="
M41.288551,51.873146 
	C41.061165,51.220829 40.885284,50.369427 41.824772,50.047989 
	C41.903549,50.021034 42.178917,50.259171 42.162548,50.311653 
	C42.004860,50.817261 41.804165,51.309460 41.288551,51.873146 
z"/>
<path fill="#000000" opacity="1.000000" stroke="none" 
	d="
M68.127747,35.131557 
	C67.769310,35.867981 67.206551,36.307793 66.351318,36.281998 
	C66.292847,36.280235 66.197037,36.012329 66.195679,35.867470 
	C66.187538,34.999317 66.876251,35.073528 67.818573,35.093540 
	C68.202644,35.211048 68.151047,35.159576 68.127747,35.131557 
z"/>
<path fill="#000000" opacity="1.000000" stroke="none" 
	d="
M58.114494,51.553619 
	C58.832870,51.702763 59.349457,52.296883 58.548325,52.706226 
	C57.608547,53.186409 57.675270,52.471413 58.114494,51.553619 
z"/>
<path fill="#000000" opacity="1.000000" stroke="none" 
	d="
M40.877640,51.866611 
	C40.958790,52.583931 41.139477,53.364735 40.358055,53.862137 
	C40.264488,53.921688 39.718914,53.540623 39.740211,53.466618 
	C39.862526,53.041550 40.092644,52.647503 40.623764,52.091873 
	C40.961330,51.940804 40.902355,51.894714 40.877640,51.866611 
z"/>
<path fill="#000000" opacity="1.000000" stroke="none" 
	d="
M68.057251,52.043228 
	C67.837311,52.878773 67.253311,53.300556 66.408592,53.344845 
	C66.344337,53.348213 66.119011,52.659874 66.197945,52.601097 
	C66.536453,52.349022 66.960861,52.212280 67.744354,52.077358 
	C68.134750,52.121216 68.079956,52.072163 68.057251,52.043228 
z"/>
<path fill="#000000" opacity="1.000000" stroke="none" 
	d="
M79.069672,52.057587 
	C78.817940,52.873386 78.218330,53.266624 77.389755,53.308735 
	C77.334137,53.311562 77.124573,52.625145 77.205490,52.567715 
	C77.548759,52.324093 77.974693,52.196934 78.758537,52.081352 
	C79.146645,52.135479 79.092278,52.086399 79.069672,52.057587 
z"/>
<path fill="#000000" opacity="1.000000" stroke="none" 
	d="
M56.414730,54.780907 
	C56.058033,54.853443 56.021099,54.417130 55.950642,54.209843 
	C56.188416,53.550106 56.388744,52.679470 57.131130,53.235958 
	C57.859432,53.781895 56.966286,54.224064 56.414730,54.780907 
z"/>
<path fill="#000000" opacity="1.000000" stroke="none" 
	d="
M60.515179,49.598495 
	C60.766750,49.077385 61.265427,48.146133 61.724140,48.994770 
	C62.196602,49.868835 61.302406,49.842896 60.515179,49.598495 
z"/>
<path fill="#000000" opacity="1.000000" stroke="none" 
	d="
M52.129158,49.619415 
	C51.586040,50.013451 51.166401,50.009438 50.432930,49.980202 
	C50.517502,48.800785 51.009087,47.917618 52.129158,49.619415 
z"/>
<path fill="#000000" opacity="1.000000" stroke="none" 
	d="
M62.151100,69.157593 
	C62.017742,68.409782 61.818657,67.603355 62.673992,67.105026 
	C62.787598,67.038841 63.356670,67.437744 63.335590,67.508888 
	C63.206486,67.944588 62.968071,68.347900 62.416542,68.921577 
	C62.067013,69.081154 62.125637,69.129425 62.151100,69.157593 
z"/>
<path fill="#000000" opacity="1.000000" stroke="none" 
	d="
M74.214615,39.084816 
	C74.377953,38.209408 74.968658,37.674973 75.404060,38.419186 
	C75.916481,39.295063 74.789024,39.091282 74.214615,39.084816 
z"/>
<path fill="#CCCCCC" opacity="1.000000" stroke="none" 
	d="
M47.351124,104.817993 
	C47.105301,104.535591 47.058765,104.104149 47.074642,103.351257 
	C47.797646,103.444351 48.061314,103.958992 47.351124,104.817993 
z"/>
<path fill="#000000" opacity="1.000000" stroke="none" 
	d="
M63.603287,37.928123 
	C63.880333,38.893715 63.251457,39.263931 62.427486,39.369263 
	C62.365955,39.377129 62.083767,38.714695 62.169563,38.628731 
	C62.472214,38.325470 62.890491,38.137592 63.603287,37.928123 
z"/>
<path fill="#000000" opacity="1.000000" stroke="none" 
	d="
M64.002762,38.013443 
	C64.038605,37.041203 64.819534,36.852863 65.548149,36.646057 
	C65.578423,36.637466 65.891861,37.310699 65.833046,37.356300 
	C65.499397,37.614983 65.092514,37.779194 64.326103,37.962921 
	C63.941654,37.950294 63.984268,37.990658 64.002762,38.013443 
z"/>
<path fill="#000000" opacity="1.000000" stroke="none" 
	d="
M142.626312,136.523712 
	C142.806030,137.351669 142.798401,138.269562 141.940369,137.712524 
	C141.143402,137.195160 142.120407,136.735229 142.626312,136.523712 
z"/>
<path fill="#000000" opacity="1.000000" stroke="none" 
	d="
M138.578827,140.024353 
	C139.529037,139.639465 140.224548,139.677139 139.686325,140.564514 
	C139.214111,141.343079 138.671432,140.847137 138.578827,140.024353 
z"/>
<path fill="#CCCCCC" opacity="1.000000" stroke="none" 
	d="
M45.693275,95.125259 
	C45.835583,95.031349 45.985668,95.498482 45.929905,95.737389 
	C45.766418,95.723923 45.658695,95.471550 45.693275,95.125259 
z"/>
<path fill="#F5F5F5" opacity="1.000000" stroke="none" 
	d="
M137.898651,185.988495 
	C137.642532,186.040146 137.346924,185.804733 137.025940,185.284607 
	C137.286758,185.233749 137.572968,185.467590 137.898651,185.988495 
z"/>
<path fill="#000000" opacity="1.000000" stroke="none" 
	d="
M104.020020,111.915840 
	C102.417328,114.503784 100.404587,116.101204 97.867065,117.025406 
	C96.886978,117.382370 96.036812,118.597710 94.836884,117.315262 
	C93.914925,116.329880 93.869652,115.368256 94.364983,114.176132 
	C96.600922,108.794952 100.862434,105.301399 105.552132,102.261108 
	C106.211166,101.833870 107.729477,101.075684 107.284538,103.607918 
	C106.763306,106.574379 106.434868,109.399712 104.020020,111.915840 
z"/>
<path fill="#000000" opacity="1.000000" stroke="none" 
	d="
M148.745087,21.748924 
	C150.059097,20.870264 150.839920,20.881794 150.989868,22.312830 
	C151.119827,23.552925 150.524323,24.073334 149.307724,23.958488 
	C147.856232,23.821472 147.852814,23.061712 148.745087,21.748924 
z"/>
</svg>