<?xml version="1.0" encoding="UTF-8"?>
<!DOCTYPE svg PUBLIC "-//W3C//DTD SVG 1.1//EN" "http://www.w3.org/Graphics/SVG/1.1/DTD/svg11.dtd">
<svg xmlns="http://www.w3.org/2000/svg" version="1.1" width="224px" height="224px" style="shape-rendering:geometricPrecision; text-rendering:geometricPrecision; image-rendering:optimizeQuality; fill-rule:evenodd; clip-rule:evenodd" xmlns:xlink="http://www.w3.org/1999/xlink">
<g><path style="opacity:0.999" fill="#26282d" d="M 27.5,-0.5 C 83.5,-0.5 139.5,-0.5 195.5,-0.5C 209.86,3.85957 219.193,13.1929 223.5,27.5C 223.5,83.8333 223.5,140.167 223.5,196.5C 218.833,209.833 209.833,218.833 196.5,223.5C 140.167,223.5 83.8333,223.5 27.5,223.5C 13.1667,219.167 3.83333,209.833 -0.5,195.5C -0.5,139.5 -0.5,83.5 -0.5,27.5C 3.83333,13.1667 13.1667,3.83333 27.5,-0.5 Z"/></g>
<g><path style="opacity:1" fill="#69696c" d="M 156.5,29.5 C 155.833,29.8333 155.167,30.1667 154.5,30.5C 154.824,27.306 153.658,26.306 151,27.5C 150.51,28.7932 150.343,30.1266 150.5,31.5C 151.5,31.5 152.5,31.5 153.5,31.5C 153.5,31.8333 153.5,32.1667 153.5,32.5C 149.658,33.4859 148.158,31.8192 149,27.5C 152.518,24.5041 155.018,25.1708 156.5,29.5 Z"/></g>
<g><path style="opacity:1" fill="#2d2e33" d="M 154.5,30.5 C 154.5,31.1667 154.167,31.5 153.5,31.5C 152.5,31.5 151.5,31.5 150.5,31.5C 150.343,30.1266 150.51,28.7932 151,27.5C 153.658,26.306 154.824,27.306 154.5,30.5 Z"/></g>
<g><path style="opacity:1" fill="#a2a2a3" d="M 57.5,59.5 C 56.8333,59.5 56.1667,59.5 55.5,59.5C 55.5,58.8333 55.5,58.1667 55.5,57.5C 72.8893,37.5295 94.8893,29.0295 121.5,32C 137.326,33.8629 150.993,40.1963 162.5,51C 166.637,50.7967 168.137,52.63 167,56.5C 165.612,57.5536 164.112,57.7203 162.5,57C 161.896,54.5325 160.562,52.5325 158.5,51C 132.315,31.8113 104.648,29.478 75.5,44C 69.0129,48.6576 63.0129,53.8243 57.5,59.5 Z"/></g>
<g><path style="opacity:1" fill="#a3a3a3" d="M 34.5,95.5 C 33.5386,97.2646 33.2053,99.2646 33.5,101.5C 32.5,101.5 31.5,101.5 30.5,101.5C 34.348,64.8149 53.6813,40.3149 88.5,28C 94.3406,26.0491 100.341,25.2158 106.5,25.5C 106.67,24.1779 106.337,23.0113 105.5,22C 75.5512,24.6007 52.7179,38.7674 37,64.5C 32.5256,74.1164 29.1923,84.1164 27,94.5C 26.1808,100.681 26.3475,106.681 27.5,112.5C 28.0596,124.756 31.393,136.089 37.5,146.5C 42.4868,156.119 49.1534,164.453 57.5,171.5C 57.5,171.833 57.5,172.167 57.5,172.5C 57.5,172.833 57.5,173.167 57.5,173.5C 56.8333,173.5 56.1667,173.5 55.5,173.5C 54.1667,172.5 52.8333,171.5 51.5,170.5C 43.3485,162.185 36.6819,152.852 31.5,142.5C 31.3404,140.847 30.6737,139.514 29.5,138.5C 15.6569,93.8618 27.6569,58.0285 65.5,31C 79.3458,22.3775 94.1791,17.8775 110,17.5C 110.2,20.7335 111.033,23.7335 112.5,26.5C 112.048,28.3122 110.882,29.3122 109,29.5C 104.876,28.4285 100.71,28.2618 96.5,29C 68.7496,35.7505 49.2496,52.2505 38,78.5C 35.8896,83.991 34.723,89.6577 34.5,95.5 Z"/></g>
<g><path style="opacity:1" fill="#a7a6a7" d="M 156.5,29.5 C 167.281,36.4651 176.447,44.7984 184,54.5C 179.65,56.6347 177.317,55.3013 177,50.5C 170.277,42.9065 162.443,36.9065 153.5,32.5C 153.5,32.1667 153.5,31.8333 153.5,31.5C 154.167,31.5 154.5,31.1667 154.5,30.5C 155.167,30.1667 155.833,29.8333 156.5,29.5 Z"/></g>
<g><path style="opacity:1" fill="#a09fa0" d="M 104.5,48.5 C 75.766,53.734 58.9326,70.734 54,99.5C 53.0239,108.784 54.1906,117.784 57.5,126.5C 57.1667,127.167 56.8333,127.833 56.5,128.5C 55.8333,128.167 55.1667,127.833 54.5,127.5C 45.0207,92.6808 56.0207,66.6808 87.5,49.5C 101.109,44.2734 115.109,43.1067 129.5,46C 131.184,48.7864 130.517,50.6198 127.5,51.5C 126.09,51.1322 125.09,50.2989 124.5,49C 117.842,48.5004 111.175,48.3337 104.5,48.5 Z"/></g>
<g><path style="opacity:1" fill="#2d2f34" d="M 85.5,44.5 C 86.1667,46.1667 86.8333,47.8333 87.5,49.5C 56.0207,66.6808 45.0207,92.6808 54.5,127.5C 54.3379,129.527 54.5045,131.527 55,133.5C 56.3561,134.38 57.8561,134.714 59.5,134.5C 57.7809,135.022 56.4475,136.022 55.5,137.5C 39.5002,104.331 45.8335,76.1644 74.5,53C 77.3765,50.563 80.7098,49.2297 84.5,49C 85.3802,47.6439 85.7135,46.1439 85.5,44.5 Z"/></g>
<g><path style="opacity:1" fill="#66676a" d="M 55.5,57.5 C 55.5,58.1667 55.5,58.8333 55.5,59.5C 56.1667,59.5 56.8333,59.5 57.5,59.5C 57.2155,61.4147 57.5489,63.0813 58.5,64.5C 58.1667,65.5 57.5,66.1667 56.5,66.5C 55.0484,65.6981 53.3817,65.1981 51.5,65C 49.4007,60.651 50.734,58.151 55.5,57.5 Z"/></g>
<g><path style="opacity:1" fill="#282a2f" d="M 55.5,59.5 C 55.5,60.8333 55.5,62.1667 55.5,63.5C 54.1667,63.5 52.8333,63.5 51.5,63.5C 51.1667,60.5 52.5,59.1667 55.5,59.5 Z"/></g>
<g><path style="opacity:1" fill="#a6a5a6" d="M 21.5,84.5 C 20.9329,82.302 20.9329,79.9686 21.5,77.5C 22.8998,71.3653 25.3998,65.6987 29,60.5C 29.3333,58.5 29.6667,56.5 30,54.5C 32.8249,52.9157 34.9916,53.5824 36.5,56.5C 35.4717,58.3615 33.9717,59.6948 32,60.5C 27.9899,68.3943 24.4899,76.3943 21.5,84.5 Z"/></g>
<g><path style="opacity:1" fill="#f20303" d="M 119.5,102.5 C 127.167,103.167 134.833,103.833 142.5,104.5C 142.047,105.458 141.381,106.292 140.5,107C 133.842,107.5 127.175,107.666 120.5,107.5C 120.382,115.13 117.048,120.963 110.5,125C 104.624,128.628 98.2909,129.961 91.5,129C 86.4428,120.276 88.1094,112.942 96.5,107C 99.9494,104.941 103.616,103.441 107.5,102.5C 106.52,101.019 105.353,99.6853 104,98.5C 103.312,97.6683 103.479,97.0016 104.5,96.5C 108.74,94.2122 113.073,92.2122 117.5,90.5C 118.043,90.44 118.376,90.1067 118.5,89.5C 112.012,88.8332 105.679,88.1666 99.5,87.5C 99.7512,85.8297 100.418,84.3297 101.5,83C 111.494,82.5002 121.494,82.3335 131.5,82.5C 131.628,84.6547 131.128,86.6547 130,88.5C 125.586,91.624 121.086,94.624 116.5,97.5C 117.952,98.9397 118.952,100.606 119.5,102.5 Z"/></g>
<g><path style="opacity:1" fill="#89898b" d="M 21.5,77.5 C 20.9329,79.9686 20.9329,82.302 21.5,84.5C 21.7947,86.7354 21.4614,88.7354 20.5,90.5C 20.6495,89.448 20.4828,88.448 20,87.5C 17.8606,96.0301 17.0272,104.697 17.5,113.5C 15.4497,101.157 16.783,89.1572 21.5,77.5 Z"/></g>
<g><path style="opacity:1" fill="#303236" d="M 30.5,101.5 C 28.7868,102.635 28.1201,104.302 28.5,106.5C 27.5386,108.265 27.2053,110.265 27.5,112.5C 26.3475,106.681 26.1808,100.681 27,94.5C 29.1923,84.1164 32.5256,74.1164 37,64.5C 52.7179,38.7674 75.5512,24.6007 105.5,22C 106.337,23.0113 106.67,24.1779 106.5,25.5C 100.341,25.2158 94.3406,26.0491 88.5,28C 53.6813,40.3149 34.348,64.8149 30.5,101.5 Z"/></g>
<g><path style="opacity:1" fill="#c00b0c" d="M 99.5,87.5 C 105.679,88.1666 112.012,88.8332 118.5,89.5C 118.376,90.1067 118.043,90.44 117.5,90.5C 111.321,89.8334 104.988,89.1668 98.5,88.5C 98.6236,87.8933 98.9569,87.56 99.5,87.5 Z"/></g>
<g><path style="opacity:1" fill="#2f3135" d="M 104.5,48.5 C 107.477,48.9016 110.143,49.9016 112.5,51.5C 84.7041,53.0833 66.5374,67.4166 58,94.5C 56.7003,105.463 57.8669,116.13 61.5,126.5C 61.631,127.239 61.4643,127.906 61,128.5C 59.8873,127.695 58.7206,127.028 57.5,126.5C 54.1906,117.784 53.0239,108.784 54,99.5C 58.9326,70.734 75.766,53.734 104.5,48.5 Z"/></g>
<g><path style="opacity:1" fill="#636467" d="M 34.5,95.5 C 34.2035,98.7239 34.8702,101.724 36.5,104.5C 34.7679,108.933 32.1012,109.6 28.5,106.5C 28.1201,104.302 28.7868,102.635 30.5,101.5C 31.5,101.5 32.5,101.5 33.5,101.5C 33.2053,99.2646 33.5386,97.2646 34.5,95.5 Z"/></g>
<g><path style="opacity:1" fill="#a70f11" d="M 119.5,102.5 C 127.528,102.169 135.528,102.502 143.5,103.5C 143.376,104.107 143.043,104.44 142.5,104.5C 134.833,103.833 127.167,103.167 119.5,102.5 Z"/></g>
<g><path style="opacity:1" fill="#2b2d31" d="M 30.5,102.5 C 33.1662,102.066 34.3329,103.066 34,105.5C 30.4034,107.066 29.2368,106.066 30.5,102.5 Z"/></g>
<g><path style="opacity:1" fill="#9a1415" d="M 107.5,108.5 C 108.568,107.566 109.901,107.232 111.5,107.5C 111.784,109.415 111.451,111.081 110.5,112.5C 110.5,111.167 110.5,109.833 110.5,108.5C 109.5,108.5 108.5,108.5 107.5,108.5 Z"/></g>
<g><path style="opacity:1" fill="#2d272a" d="M 107.5,108.5 C 108.5,108.5 109.5,108.5 110.5,108.5C 110.5,109.833 110.5,111.167 110.5,112.5C 108.552,119.788 103.885,123.788 96.5,124.5C 96.1776,118.977 98.1776,114.477 102.5,111C 104.078,109.906 105.745,109.072 107.5,108.5 Z"/></g>
<g><path style="opacity:1" fill="#5b5c5f" d="M 159.5,113.5 C 158.791,112.596 157.791,112.263 156.5,112.5C 156.768,114.099 156.434,115.432 155.5,116.5C 155.557,114.116 155.223,111.782 154.5,109.5C 156.007,105.165 158.507,104.498 162,107.5C 162.972,110.294 162.139,112.294 159.5,113.5 Z"/></g>
<g><path style="opacity:1" fill="#292b2f" d="M 157.5,107.5 C 158.5,107.5 159.5,107.5 160.5,107.5C 160.5,108.833 160.5,110.167 160.5,111.5C 159.167,111.5 157.833,111.5 156.5,111.5C 156.433,110.041 156.766,108.708 157.5,107.5 Z"/></g>
<g><path style="opacity:1" fill="#68696c" d="M 200.5,113.5 C 199.5,112.167 198.5,112.167 197.5,113.5C 194.401,109.896 195.068,107.229 199.5,105.5C 204.141,107.73 204.475,110.396 200.5,113.5 Z"/></g>
<g><path style="opacity:1" fill="#292b30" d="M 197.5,107.5 C 200.5,107.167 201.833,108.5 201.5,111.5C 197.56,112.234 196.227,110.901 197.5,107.5 Z"/></g>
<g><path style="opacity:1" fill="#8c8d8e" d="M 186.5,61.5 C 197.06,72.7264 198.227,85.0597 190,98.5C 184.787,105.19 177.954,108.856 169.5,109.5C 167.712,113.753 167.379,118.087 168.5,122.5C 167.976,125.396 166.476,126.063 164,124.5C 163.333,123.167 163.333,121.833 164,120.5C 167.274,110.678 170.941,101.011 175,91.5C 177.476,89.9372 178.976,90.6038 179.5,93.5C 175.882,96.6972 173.216,100.697 171.5,105.5C 181.392,105.159 188.226,100.159 192,90.5C 194.883,81.6005 193.383,73.6005 187.5,66.5C 182.421,71.5531 176.421,75.3865 169.5,78C 158.691,84.7269 156.858,93.2269 164,103.5C 167.49,95.6839 172.157,88.6839 178,82.5C 177.797,78.3629 179.63,76.8629 183.5,78C 184.972,81.5518 183.638,83.2185 179.5,83C 173.364,90.1039 168.364,97.9373 164.5,106.5C 157.448,100.993 155.615,93.993 159,85.5C 160.793,82.7047 162.96,80.2047 165.5,78C 172.247,74.5447 178.747,70.7114 185,66.5C 185.608,64.8455 186.108,63.1789 186.5,61.5 Z"/></g>
<g><path style="opacity:1" fill="#626366" d="M 57.5,126.5 C 58.7206,127.028 59.8873,127.695 61,128.5C 61.4643,127.906 61.631,127.239 61.5,126.5C 62.5375,127.93 63.2041,129.597 63.5,131.5C 61.9699,132.211 60.6366,133.211 59.5,134.5C 57.8561,134.714 56.3561,134.38 55,133.5C 54.5045,131.527 54.3379,129.527 54.5,127.5C 55.1667,127.833 55.8333,128.167 56.5,128.5C 56.8333,127.833 57.1667,127.167 57.5,126.5 Z"/></g>
<g><path style="opacity:1" fill="#292c30" d="M 56.5,128.5 C 57.5,128.5 58.5,128.5 59.5,128.5C 59.8841,130.665 59.2174,132.332 57.5,133.5C 55.2957,132.218 54.9624,130.551 56.5,128.5 Z"/></g>
<g><path style="opacity:1" fill="#a0a0a0" d="M 20.5,90.5 C 20.3335,100.172 20.5002,109.839 21,119.5C 21.9943,125.976 23.4943,132.31 25.5,138.5C 25.4431,139.609 25.1098,140.609 24.5,141.5C 23.8333,140.833 23.1667,140.167 22.5,139.5C 19.8861,131.039 18.2195,122.373 17.5,113.5C 17.0272,104.697 17.8606,96.0301 20,87.5C 20.4828,88.448 20.6495,89.448 20.5,90.5 Z"/></g>
<g><path style="opacity:1" fill="#6d6e70" d="M 191.5,130.5 C 191.851,133.812 190.518,136.145 187.5,137.5C 187.196,135.204 186.196,134.871 184.5,136.5C 184.232,133.881 184.565,131.381 185.5,129C 187.989,128.059 189.989,128.559 191.5,130.5 Z"/></g>
<g><path style="opacity:1" fill="#292a2f" d="M 186.5,130.5 C 187.833,130.5 189.167,130.5 190.5,130.5C 190.833,133.5 189.5,134.833 186.5,134.5C 186.5,133.167 186.5,131.833 186.5,130.5 Z"/></g>
<g><path style="opacity:1" fill="#303237" d="M 61.5,96.5 C 61.1818,101.032 61.5151,105.366 62.5,109.5C 65.7417,123.473 72.7417,135.306 83.5,145C 86.2432,147.038 89.2432,148.538 92.5,149.5C 93.1441,152.804 95.1441,154.138 98.5,153.5C 97.8333,154.167 97.1667,154.833 96.5,155.5C 70.1544,144.468 58.4878,124.801 61.5,96.5 Z"/></g>
<g><path style="opacity:1" fill="#a3a3a3" d="M 159.5,113.5 C 156.907,128.197 149.24,139.364 136.5,147C 135.531,150.075 133.531,151.075 130.5,150C 129.446,148.612 129.28,147.112 130,145.5C 143.918,140.74 152.418,131.073 155.5,116.5C 156.434,115.432 156.768,114.099 156.5,112.5C 157.791,112.263 158.791,112.596 159.5,113.5 Z"/></g>
<g><path style="opacity:1" fill="#292b2f" d="M 148.5,145.5 C 148.5,145.167 148.5,144.833 148.5,144.5C 148.5,143.5 148.5,142.5 148.5,141.5C 149.833,141.5 151.167,141.5 152.5,141.5C 152.833,144.5 151.5,145.833 148.5,145.5 Z"/></g>
<g><path style="opacity:1" fill="#616366" d="M 25.5,138.5 C 26.7206,139.028 27.8873,139.695 29,140.5C 29.4643,139.906 29.631,139.239 29.5,138.5C 30.6737,139.514 31.3404,140.847 31.5,142.5C 30.3994,143.848 29.3994,145.348 28.5,147C 23.178,147.493 21.178,144.993 22.5,139.5C 23.1667,140.167 23.8333,140.833 24.5,141.5C 25.1098,140.609 25.4431,139.609 25.5,138.5 Z"/></g>
<g><path style="opacity:1" fill="#2b2d32" d="M 24.5,141.5 C 25.8333,141.5 27.1667,141.5 28.5,141.5C 28.1144,145.738 26.4477,146.404 23.5,143.5C 23.8627,142.817 24.1961,142.15 24.5,141.5 Z"/></g>
<g><path style="opacity:1" fill="#5f6063" d="M 148.5,147.5 C 148.5,146.833 148.5,146.167 148.5,145.5C 151.5,145.833 152.833,144.5 152.5,141.5C 151.167,141.5 149.833,141.5 148.5,141.5C 148.5,142.5 148.5,143.5 148.5,144.5C 147.833,143.833 147.167,143.167 146.5,142.5C 148.563,139.027 151.063,138.694 154,141.5C 154.833,145.836 153,147.836 148.5,147.5 Z"/></g>
<g><path style="opacity:1" fill="#a2a2a3" d="M 112.5,51.5 C 112.703,53.3904 112.037,54.8904 110.5,56C 88.8228,56.2817 73.3228,66.4484 64,86.5C 63.0572,89.824 62.2239,93.1574 61.5,96.5C 58.4878,124.801 70.1544,144.468 96.5,155.5C 113.02,160.012 128.354,157.512 142.5,148C 144.746,146.743 146.079,144.91 146.5,142.5C 147.167,143.167 147.833,143.833 148.5,144.5C 148.5,144.833 148.5,145.167 148.5,145.5C 148.5,146.167 148.5,146.833 148.5,147.5C 126.586,163.362 103.919,164.529 80.5,151C 73.9073,145.245 68.2407,138.745 63.5,131.5C 63.2041,129.597 62.5375,127.93 61.5,126.5C 57.8669,116.13 56.7003,105.463 58,94.5C 66.5374,67.4166 84.7041,53.0833 112.5,51.5 Z"/></g>
<g><path style="opacity:1" fill="#a2a2a3" d="M 92.5,146.5 C 93.1667,147.167 93.8333,147.833 94.5,148.5C 94.5,148.833 94.5,149.167 94.5,149.5C 93.8333,149.5 93.1667,149.5 92.5,149.5C 89.2432,148.538 86.2432,147.038 83.5,145C 72.7417,135.306 65.7417,123.473 62.5,109.5C 64.5902,106.886 66.7569,106.886 69,109.5C 69.2539,126.598 77.0873,138.931 92.5,146.5 Z"/></g>
<g><path style="opacity:1" fill="#a3a2a3" d="M 85.5,44.5 C 85.7135,46.1439 85.3802,47.6439 84.5,49C 80.7098,49.2297 77.3765,50.563 74.5,53C 45.8335,76.1644 39.5002,104.331 55.5,137.5C 64.5706,154.563 78.5706,165.23 97.5,169.5C 100.879,171.009 104.545,172.009 108.5,172.5C 106.955,173.452 105.288,173.785 103.5,173.5C 69.0727,167.066 49.2394,146.399 44,111.5C 42.9243,95.0013 47.091,80.0013 56.5,66.5C 57.5,66.1667 58.1667,65.5 58.5,64.5C 64.0339,57.4722 70.7005,51.6389 78.5,47C 79.9141,43.5637 82.2475,42.7304 85.5,44.5 Z"/></g>
<g><path style="opacity:1" fill="#666769" d="M 187.5,160.5 C 189.441,162.011 189.941,164.011 189,166.5C 187.67,167.582 186.17,168.249 184.5,168.5C 184.5,167.167 183.833,166.5 182.5,166.5C 181.425,162.062 183.092,160.062 187.5,160.5 Z"/></g>
<g><path style="opacity:1" fill="#2e2f34" d="M 184.5,161.5 C 185.5,161.5 186.5,161.5 187.5,161.5C 187.5,162.833 187.5,164.167 187.5,165.5C 186.167,165.5 184.833,165.5 183.5,165.5C 183.433,164.041 183.766,162.708 184.5,161.5 Z"/></g>
<g><path style="opacity:1" fill="#a2a2a3" d="M 200.5,113.5 C 198.615,128.933 193.615,143.266 185.5,156.5C 173.355,172.372 158.022,183.539 139.5,190C 138.483,188.951 138.316,187.784 139,186.5C 166.23,177.77 184.397,159.77 193.5,132.5C 195.307,126.271 196.64,119.938 197.5,113.5C 198.5,112.167 199.5,112.167 200.5,113.5 Z"/></g>
<g><path style="opacity:1" fill="#2b2d32" d="M 191.5,130.5 C 192.167,131.167 192.833,131.833 193.5,132.5C 184.397,159.77 166.23,177.77 139,186.5C 138.316,187.784 138.483,188.951 139.5,190C 158.022,183.539 173.355,172.372 185.5,156.5C 185.586,157.496 185.252,158.329 184.5,159C 185.737,159.232 186.737,159.732 187.5,160.5C 183.092,160.062 181.425,162.062 182.5,166.5C 151.277,197.888 114.943,205.722 73.5,190C 63.739,186.159 56.0723,179.992 50.5,171.5C 51.1667,171.5 51.5,171.167 51.5,170.5C 52.8333,171.5 54.1667,172.5 55.5,173.5C 55.0826,178.068 57.0826,179.568 61.5,178C 64.3492,173.64 63.0159,171.473 57.5,171.5C 49.1534,164.453 42.4868,156.119 37.5,146.5C 38.391,145.89 39.391,145.557 40.5,145.5C 40.5,146.833 40.5,148.167 40.5,149.5C 41.8221,149.33 42.9887,149.663 44,150.5C 68.9442,185.035 101.778,195.535 142.5,182C 163.325,173.008 178.325,158.174 187.5,137.5C 190.518,136.145 191.851,133.812 191.5,130.5 Z"/></g>
<g><path style="opacity:1" fill="#a2a2a2" d="M 187.5,137.5 C 178.325,158.174 163.325,173.008 142.5,182C 101.778,195.535 68.9442,185.035 44,150.5C 42.9887,149.663 41.8221,149.33 40.5,149.5C 40.5,148.167 40.5,146.833 40.5,145.5C 41.7514,143.439 43.4181,143.106 45.5,144.5C 46.1892,146.444 46.6892,148.444 47,150.5C 73.4029,184.061 106.57,192.895 146.5,177C 164.166,168.168 176.833,154.668 184.5,136.5C 186.196,134.871 187.196,135.204 187.5,137.5 Z"/></g>
<g><path style="opacity:1" fill="#707173" d="M 103.5,173.5 C 105.288,173.785 106.955,173.452 108.5,172.5C 104.545,172.009 100.879,171.009 97.5,169.5C 100.002,169.749 102.502,170.083 105,170.5C 107.871,169.791 110.705,169.291 113.5,169C 116.054,171.398 116.054,173.731 113.5,176C 110.107,175.487 106.774,174.654 103.5,173.5 Z"/></g>
<g><path style="opacity:1" fill="#2d2f33" d="M 110.5,170.5 C 111.5,170.5 112.5,170.5 113.5,170.5C 113.884,172.665 113.217,174.332 111.5,175.5C 109.296,174.218 108.962,172.551 110.5,170.5 Z"/></g>
<g><path style="opacity:1" fill="#6a6b6e" d="M 98.5,153.5 C 95.1441,154.138 93.1441,152.804 92.5,149.5C 93.1667,149.5 93.8333,149.5 94.5,149.5C 94.6845,152.173 95.8511,152.84 98,151.5C 98.49,150.207 98.6567,148.873 98.5,147.5C 97.0413,147.433 95.7079,147.766 94.5,148.5C 93.8333,147.833 93.1667,147.167 92.5,146.5C 98.4437,144.28 100.944,146.28 100,152.5C 99.6174,153.056 99.1174,153.389 98.5,153.5 Z"/></g>
<g><path style="opacity:1" fill="#2b2d31" d="M 94.5,149.5 C 94.5,149.167 94.5,148.833 94.5,148.5C 95.7079,147.766 97.0413,147.433 98.5,147.5C 98.6567,148.873 98.49,150.207 98,151.5C 95.8511,152.84 94.6845,152.173 94.5,149.5 Z"/></g>
<g><path style="opacity:1" fill="#a3a3a4" d="M 182.5,166.5 C 183.833,166.5 184.5,167.167 184.5,168.5C 153.534,199.824 117.201,208.324 75.5,194C 66.7021,190.187 58.7021,185.187 51.5,179C 47.5342,179.036 45.7009,177.203 46,173.5C 47.049,171.893 48.549,171.227 50.5,171.5C 56.0723,179.992 63.739,186.159 73.5,190C 114.943,205.722 151.277,197.888 182.5,166.5 Z"/></g>
<g><path style="opacity:1" fill="#68696c" d="M 57.5,172.5 C 57.5,172.167 57.5,171.833 57.5,171.5C 63.0159,171.473 64.3492,173.64 61.5,178C 57.0826,179.568 55.0826,178.068 55.5,173.5C 56.1667,173.5 56.8333,173.5 57.5,173.5C 57.8542,177.859 59.1875,178.359 61.5,175C 60.9681,172.98 59.6348,172.147 57.5,172.5 Z"/></g>
<g><path style="opacity:1" fill="#2c2e33" d="M 57.5,172.5 C 59.6348,172.147 60.9681,172.98 61.5,175C 59.1875,178.359 57.8542,177.859 57.5,173.5C 57.5,173.167 57.5,172.833 57.5,172.5 Z"/></g>
</svg>
